<svg id="Camada_1" data-name="Camada 1" xmlns="http://www.w3.org/2000/svg" viewBox="0 0 997.32 529.4"><defs><style>.cls-1{fill:#6c3a8e;}</style></defs><path class="cls-1" d="M72.45,418.8H19.21Q0,418.8,0,399.59V109.78Q0,90.57,19.21,90.57H220.65q15.91,0,23,13.17L309,213q7.68,13.17,0,26.34L243.7,349.09q-7.14,13.17-23,13.17H152q-14.28,0-23-12.07l-21.41-25.25a8.3,8.3,0,0,0-6.59-3.29H97.15q-5.49,0-5.49,5.48v72.46Q91.66,418.79,72.45,418.8ZM91.66,172.9v107h90.57l32.93-53.79L182.23,172.9Z"/><path class="cls-1" d="M488,373.24H433.07q-15.93,0-23.06-13.17L344.7,244.8q-7.69-13.17,0-26.34L410,103.74q7.14-13.17,23.06-13.17h129V19.21Q562.05,0,581.27,0h53.24q19.2,0,19.21,19.21V354q0,19.22-19.21,19.21H591.15q-9.89,0-23.06-14.27l-20.86-24.15c-1.09-1.83-3.29-2.75-6.58-2.75H537.9q-4.93,0-6.58,2.75L510.46,359c-.37.37-1.19,1.29-2.47,2.74s-2.11,2.39-2.47,2.75-1.19,1.1-2.47,2.19-2.2,1.84-2.74,2.2l-2.47,1.65a16.74,16.74,0,0,1-3,1.64,14.17,14.17,0,0,1-3.3.83A25.72,25.72,0,0,1,488,373.24ZM434.71,231.63l33.49,59.28h93.85v-118H468.2Z"/><path class="cls-1" d="M941.88,417.7H759.1q-19.22,0-19.21-19.21V354.58q0-19.21,19.21-19.21H905.65V171.8H813.44l-20.86,39,35.13,65.87q4.95,8.78,1.37,15.91t-14.54,7.14H756.36q-16.47,0-23.05-13.17l-31.84-62.58q-7.14-13.71,0-26.34l51.59-93.86q7.14-13.17,23.06-13.17h202q19.2,0,19.21,19.21v244.8a33.22,33.22,0,0,1-9.33,23.6l-23.06,25.25Q951.76,417.7,941.88,417.7Z"/><path class="cls-1" d="M98.05,521.38V454.74a6.92,6.92,0,0,1,6.92-6.92h27.82a33.18,33.18,0,0,1,15.68,3.54,25.68,25.68,0,0,1,10.45,9.94,29.18,29.18,0,0,1,3.73,15,28.25,28.25,0,0,1-3.83,15A25.42,25.42,0,0,1,148.09,501,35.77,35.77,0,0,1,132,504.41H118.17a6.92,6.92,0,0,1-6.92-6.92v-3.14a6.92,6.92,0,0,1,6.92-6.92h9.43a14.71,14.71,0,0,0,6.58-1.35,9.83,9.83,0,0,0,4.21-3.88,11.52,11.52,0,0,0,1.47-5.93,11.29,11.29,0,0,0-1.47-5.91,9.68,9.68,0,0,0-4.21-3.78,15.14,15.14,0,0,0-6.58-1.31h-.79a6.91,6.91,0,0,0-6.91,6.92v49.19A6.92,6.92,0,0,1,113,528.3h-8a6.92,6.92,0,0,1-6.92-6.92"/><path class="cls-1" d="M246.42,488.06q0,13.44-5.22,22.65a34.87,34.87,0,0,1-14.11,13.95,43.71,43.71,0,0,1-39.67,0,35,35,0,0,1-14.07-14q-5.21-9.21-5.21-22.57t5.21-22.65a34.72,34.72,0,0,1,14.07-14,43.87,43.87,0,0,1,39.67,0,34.87,34.87,0,0,1,14.11,14q5.22,9.21,5.22,22.65m-22.48,0a34.28,34.28,0,0,0-1.9-12.2,15.61,15.61,0,0,0-29.51,0,39.92,39.92,0,0,0,0,24.4,15.62,15.62,0,0,0,29.51,0,34.28,34.28,0,0,0,1.9-12.2"/><path class="cls-1" d="M285.23,528.3h-24a6.92,6.92,0,0,1-6.92-6.92V454.74a6.92,6.92,0,0,1,6.92-6.92h23.73q12.42,0,21.47,4.81a33.71,33.71,0,0,1,14,13.84q4.92,9,4.93,21.59t-4.91,21.59a33.61,33.61,0,0,1-13.92,13.83q-9,4.83-21.26,4.82m-9.11-25.46a6.91,6.91,0,0,0,6.91,6.91h1.42a24.32,24.32,0,0,0,10.19-1.93,13,13,0,0,0,6.45-6.64q2.22-4.71,2.22-13.12t-2.26-13.12a13.2,13.2,0,0,0-6.6-6.65,26.27,26.27,0,0,0-10.63-1.92H283a6.91,6.91,0,0,0-6.91,6.91Z"/><path class="cls-1" d="M333.16,521.38V454.74a6.92,6.92,0,0,1,6.92-6.92h44.17a6.91,6.91,0,0,1,6.91,6.92v3.77a6.91,6.91,0,0,1-6.91,6.91H361.92a6.92,6.92,0,0,0,0,13.84h19.34a6.92,6.92,0,0,1,6.92,6.92v3.76a6.92,6.92,0,0,1-6.92,6.92H361.92a6.92,6.92,0,0,0,0,13.84h22.17a6.91,6.91,0,0,1,6.92,6.91v3.77a6.92,6.92,0,0,1-6.92,6.92h-44a6.92,6.92,0,0,1-6.92-6.92"/><path class="cls-1" d="M450.55,528.3H426.5a6.91,6.91,0,0,1-6.91-6.92V454.74a6.91,6.91,0,0,1,6.91-6.92h23.74q12.4,0,21.47,4.81a33.63,33.63,0,0,1,14,13.84q4.94,9,4.93,21.59t-4.91,21.59a33.53,33.53,0,0,1-13.91,13.83q-9,4.83-21.26,4.82m-9.12-25.46a6.91,6.91,0,0,0,6.92,6.91h1.42A24.32,24.32,0,0,0,460,507.82a13,13,0,0,0,6.45-6.64q2.22-4.71,2.22-13.12t-2.26-13.12a13.2,13.2,0,0,0-6.6-6.65,26.27,26.27,0,0,0-10.63-1.92h-.79a6.91,6.91,0,0,0-6.92,6.91Z"/><path class="cls-1" d="M509.22,528.3h-8.87a6.92,6.92,0,0,1-6.57-9.09l22-66.64a6.9,6.9,0,0,1,6.56-4.75h19.87a6.91,6.91,0,0,1,6.57,4.75l22,66.64a6.91,6.91,0,0,1-6.56,9.09h-8.88a6.92,6.92,0,0,1-6.62-4.92L532.59,470H532l-16.12,53.4a6.92,6.92,0,0,1-6.62,4.92m7.65-31.75h30.5a6.91,6.91,0,0,1,6.91,6.92V506a6.91,6.91,0,0,1-6.91,6.92h-30.5A6.92,6.92,0,0,1,510,506v-2.51a6.92,6.92,0,0,1,6.91-6.92"/><path class="cls-1" d="M579.26,521.38V454.74a6.92,6.92,0,0,1,6.92-6.92H614a35.59,35.59,0,0,1,15.68,3.26,24.43,24.43,0,0,1,10.45,9.39,27.74,27.74,0,0,1,3.74,14.7q0,8.65-3.83,14.58a23.87,23.87,0,0,1-10.73,9,39.89,39.89,0,0,1-16.09,3H599.38a6.91,6.91,0,0,1-6.91-6.91v-3.14a6.92,6.92,0,0,1,6.91-6.92h9.43a19.87,19.87,0,0,0,6.58-1,8.29,8.29,0,0,0,4.21-3.09,9.45,9.45,0,0,0,1.48-5.54,9.83,9.83,0,0,0-1.48-5.64,8.56,8.56,0,0,0-4.21-3.22,18.32,18.32,0,0,0-6.58-1H608a6.91,6.91,0,0,0-6.92,6.91v49.2a6.92,6.92,0,0,1-6.92,6.92h-8a6.92,6.92,0,0,1-6.92-6.92M628.38,495,641,518.07a6.92,6.92,0,0,1-6.08,10.23H627a6.91,6.91,0,0,1-6.11-3.67l-12.29-23.1a6.92,6.92,0,0,1,6.11-10.17h7.64a6.92,6.92,0,0,1,6.07,3.61"/><path class="cls-1" d="M727.49,474.38a7.06,7.06,0,0,1-5.92-3.37l-.2-.3a10.82,10.82,0,0,0-2.73-2.71,12,12,0,0,0-3.78-1.69,18.16,18.16,0,0,0-4.69-.57A15.46,15.46,0,0,0,694.9,476a31.52,31.52,0,0,0-2,11.94A34,34,0,0,0,694.8,500,15.1,15.1,0,0,0,710,510.38a20.82,20.82,0,0,0,8.32-1.45,10.73,10.73,0,0,0,5-4.13,11.71,11.71,0,0,0,1.65-6.29l3.77.4H717.24a6.91,6.91,0,0,1-6.91-6.92v-1.73a6.91,6.91,0,0,1,6.91-6.91h21.85a6.91,6.91,0,0,1,6.92,6.91v4.24q0,11-4.66,18.81a30.87,30.87,0,0,1-12.81,11.94,40.58,40.58,0,0,1-18.68,4.15,41.52,41.52,0,0,1-20.64-5,35,35,0,0,1-13.85-14.23q-5-9.23-5-22a47.87,47.87,0,0,1,3.05-17.69,37,37,0,0,1,8.47-13,36.05,36.05,0,0,1,12.53-8.06,44.34,44.34,0,0,1,28.55-.71,35.39,35.39,0,0,1,10.89,5.74,30.31,30.31,0,0,1,7.64,8.78c.19.34.38.68.55,1a6.93,6.93,0,0,1-6.16,10.1Z"/><path class="cls-1" d="M832,488.06q0,13.44-5.23,22.65a34.81,34.81,0,0,1-14.11,13.95,43.71,43.71,0,0,1-39.67,0,35,35,0,0,1-14.07-14q-5.21-9.21-5.2-22.57t5.2-22.65a34.72,34.72,0,0,1,14.07-14,43.87,43.87,0,0,1,39.67,0,34.81,34.81,0,0,1,14.11,14q5.22,9.21,5.23,22.65m-22.48,0a34.26,34.26,0,0,0-1.91-12.2,15.62,15.62,0,0,0-29.51,0,39.92,39.92,0,0,0,0,24.4,15.62,15.62,0,0,0,29.51,0,34.26,34.26,0,0,0,1.91-12.2"/></svg>