<svg width="470" height="420" viewBox="0 0 470 420" fill="none" xmlns="http://www.w3.org/2000/svg">
    <g filter="url(#filter0_d_8_10)">
        <path
            d="M195.5 358C186.75 358 178.026 351.035 171 344L133.625 311.75C132.467 310.569 131.087 309.629 129.563 308.986C128.04 308.342 126.404 308.007 124.75 308H122.5C105.924 308 90.0268 301.415 78.3058 289.694C66.5848 277.973 60 262.076 60 245.5V120.5C60 103.924 66.5848 88.0268 78.3058 76.3058C90.0268 64.5848 105.924 58 122.5 58H347.5C364.076 58 379.973 64.5848 391.694 76.3058C403.415 88.0268 410 103.924 410 120.5V245.5C410 253.708 408.383 261.835 405.242 269.418C402.102 277.001 397.498 283.891 391.694 289.694C385.891 295.498 379.001 300.102 371.418 303.242C363.835 306.383 355.708 308 347.5 308H266.25C262.971 308.014 259.828 309.316 257.5 311.625L219 344C215.431 347.476 204.375 354.337 204.375 354.337C204.375 354.337 199.249 358 195.5 358Z"
            fill="url(#paint0_linear_8_10)" />
    </g>
    <path
        d="M131.96 222H117.08C115.864 222 114.968 221.744 114.392 221.232C113.88 220.656 113.624 219.76 113.624 218.544V156.336C113.624 155.12 113.88 154.256 114.392 153.744C114.968 153.168 115.864 152.88 117.08 152.88H146.456C155.16 152.88 161.112 154.608 164.312 158.064C167.512 161.52 169.112 166.032 169.112 171.6V183.888C169.112 189.456 167.512 193.968 164.312 197.424C161.112 200.88 155.16 202.608 146.456 202.608H135.416V218.544C135.416 219.76 135.128 220.656 134.552 221.232C134.04 221.744 133.176 222 131.96 222ZM135.224 170.832V185.328H143.864C145.72 185.328 146.936 184.848 147.512 183.888C148.088 182.928 148.376 181.84 148.376 180.624V175.536C148.376 174.32 148.088 173.232 147.512 172.272C146.936 171.312 145.72 170.832 143.864 170.832H135.224ZM214.87 222H182.518C181.302 222 180.406 221.744 179.83 221.232C179.318 220.656 179.062 219.76 179.062 218.544V156.336C179.062 155.12 179.318 154.256 179.83 153.744C180.406 153.168 181.302 152.88 182.518 152.88H214.87C222.87 152.88 228.79 154.48 232.63 157.68C236.534 160.88 238.486 165.808 238.486 172.464V202.416C238.486 209.072 236.534 214 232.63 217.2C228.79 220.4 222.87 222 214.87 222ZM200.854 171.216V203.856H212.278C213.814 203.856 214.934 203.472 215.638 202.704C216.406 201.936 216.79 200.752 216.79 199.152V175.824C216.79 174.224 216.406 173.072 215.638 172.368C214.934 171.6 213.814 171.216 212.278 171.216H200.854ZM303.487 222H273.247C265.247 222 259.295 220.4 255.391 217.2C251.551 214 249.631 209.072 249.631 202.416V172.464C249.631 165.808 251.551 160.88 255.391 157.68C259.295 154.48 265.247 152.88 273.247 152.88H297.247C298.463 152.88 299.327 153.168 299.839 153.744C300.415 154.256 300.703 155.12 300.703 156.336V167.952C300.703 169.168 300.415 170.064 299.839 170.64C299.327 171.152 298.463 171.408 297.247 171.408H277.279C275.295 171.408 273.823 171.824 272.863 172.656C271.903 173.424 271.423 174.608 271.423 176.208V199.152C271.423 200.752 271.775 201.936 272.479 202.704C273.247 203.472 274.367 203.856 275.839 203.856H285.151V188.88C285.151 187.664 285.407 186.8 285.919 186.288C286.495 185.712 287.391 185.424 288.607 185.424H303.487C304.703 185.424 305.567 185.712 306.079 186.288C306.655 186.8 306.943 187.664 306.943 188.88V218.544C306.943 219.76 306.655 220.656 306.079 221.232C305.567 221.744 304.703 222 303.487 222ZM353.932 195.792L327.916 199.344C326.7 199.472 325.804 199.312 325.228 198.864C324.716 198.416 324.364 197.584 324.172 196.368L322.156 183.696C321.964 182.48 322.124 181.552 322.636 180.912C323.212 180.272 324.108 179.888 325.324 179.76L344.428 177.072C345.388 176.944 346.06 176.656 346.444 176.208C346.828 175.76 347.02 175.056 347.02 174.096C347.02 173.2 346.796 172.528 346.348 172.08C345.9 171.632 345.26 171.408 344.428 171.408H317.932C316.716 171.408 315.82 171.152 315.244 170.64C314.732 170.064 314.476 169.168 314.476 167.952V156.336C314.476 155.12 314.732 154.256 315.244 153.744C315.82 153.168 316.716 152.88 317.932 152.88H348.94C355.148 152.88 360.012 154.352 363.532 157.296C367.052 160.176 368.812 164.336 368.812 169.776V179.856C368.812 185.232 367.468 189.072 364.78 191.376C362.092 193.68 358.476 195.152 353.932 195.792ZM343.18 222H325.612C324.396 222 323.5 221.744 322.924 221.232C322.412 220.656 322.156 219.76 322.156 218.544V205.968C322.156 204.752 322.412 203.888 322.924 203.376C323.5 202.8 324.396 202.512 325.612 202.512H343.18C344.396 202.512 345.26 202.8 345.772 203.376C346.348 203.888 346.636 204.752 346.636 205.968V218.544C346.636 219.76 346.348 220.656 345.772 221.232C345.26 221.744 344.396 222 343.18 222Z"
        fill="#FEFEFE" />
    <defs>
        <filter id="filter0_d_8_10" x="0" y="0" width="470" height="420" filterUnits="userSpaceOnUse"
            color-interpolation-filters="sRGB">
            <feFlood flood-opacity="0" result="BackgroundImageFix" />
            <feColorMatrix in="SourceAlpha" type="matrix" values="0 0 0 0 0 0 0 0 0 0 0 0 0 0 0 0 0 0 127 0"
                result="hardAlpha" />
            <feOffset dy="2" />
            <feGaussianBlur stdDeviation="30" />
            <feComposite in2="hardAlpha" operator="out" />
            <feColorMatrix type="matrix" values="0 0 0 0 0 0 0 0 0 1 0 0 0 0 1 0 0 0 0.25 0" />
            <feBlend mode="normal" in2="BackgroundImageFix" result="effect1_dropShadow_8_10" />
            <feBlend mode="normal" in="SourceGraphic" in2="effect1_dropShadow_8_10" result="shape" />
        </filter>
        <linearGradient id="paint0_linear_8_10" x1="60" y1="208" x2="410" y2="208" gradientUnits="userSpaceOnUse">
            <stop stop-color="#FF00FF" />
            <stop offset="1" stop-color="#00FFFF" />
        </linearGradient>
    </defs>
    <defs>
        <filter id="neonEffect" filterUnits="userSpaceOnUse">
            <feGaussianBlur in="SourceGraphic" stdDeviation="2.5" result="coloredBlur" />
            <feMerge>
                <feMergeNode in="coloredBlur" />
                <feMergeNode in="coloredBlur" />
                <feMergeNode in="coloredBlur" />
                <feMergeNode in="SourceGraphic" />
            </feMerge>
        </filter>
    </defs>
</svg>