<svg width="65" height="58" viewBox="0 0 65 58" fill="none" xmlns="http://www.w3.org/2000/svg">
<g clip-path="url(#clip0_2_123)">
<g filter="url(#filter0_d_2_123)">
<path d="M20.0625 51.75C18.8197 51.7489 17.6282 51.2543 16.75 50.375L12.3281 45.9687C12.1834 45.8211 12.0108 45.7037 11.8204 45.6232C11.63 45.5427 11.4255 45.5009 11.2188 45.5H10.9375C8.8655 45.5 6.87836 44.6769 5.41323 43.2118C3.9481 41.7466 3.125 39.7595 3.125 37.6875V22.0625C3.125 19.9905 3.9481 18.0034 5.41323 16.5382C6.87836 15.0731 8.8655 14.25 10.9375 14.25H39.0625C41.1345 14.25 43.1216 15.0731 44.5868 16.5382C46.0519 18.0034 46.875 19.9905 46.875 22.0625V37.6875C46.875 38.7135 46.6729 39.7294 46.2803 40.6772C45.8877 41.6251 45.3122 42.4863 44.5868 43.2118C43.8613 43.9372 43.0001 44.5127 42.0522 44.9053C41.1044 45.2979 40.0885 45.5 39.0625 45.5H28.9062C28.4963 45.5017 28.1035 45.6645 27.8125 45.9531L23.4375 50.4219C22.9914 50.8563 22.4631 51.1975 21.8837 51.4256C21.3042 51.6536 20.6851 51.7639 20.0625 51.75Z" fill="#DC143C"/>
</g>
<path d="M11.12 35H9.26C9.108 35 8.996 34.968 8.924 34.904C8.86 34.832 8.828 34.72 8.828 34.568V26.792C8.828 26.64 8.86 26.532 8.924 26.468C8.996 26.396 9.108 26.36 9.26 26.36H12.932C14.02 26.36 14.764 26.576 15.164 27.008C15.564 27.44 15.764 28.004 15.764 28.7V30.236C15.764 30.932 15.564 31.496 15.164 31.928C14.764 32.36 14.02 32.576 12.932 32.576H11.552V34.568C11.552 34.72 11.516 34.832 11.444 34.904C11.38 34.968 11.272 35 11.12 35ZM11.528 28.604V30.416H12.608C12.84 30.416 12.992 30.356 13.064 30.236C13.136 30.116 13.172 29.98 13.172 29.828V29.192C13.172 29.04 13.136 28.904 13.064 28.784C12.992 28.664 12.84 28.604 12.608 28.604H11.528ZM21.4837 35H17.4397C17.2877 35 17.1757 34.968 17.1037 34.904C17.0397 34.832 17.0077 34.72 17.0077 34.568V26.792C17.0077 26.64 17.0397 26.532 17.1037 26.468C17.1757 26.396 17.2877 26.36 17.4397 26.36H21.4837C22.4837 26.36 23.2237 26.56 23.7037 26.96C24.1917 27.36 24.4357 27.976 24.4357 28.808V32.552C24.4357 33.384 24.1917 34 23.7037 34.4C23.2237 34.8 22.4837 35 21.4837 35ZM19.7317 28.652V32.732H21.1597C21.3517 32.732 21.4917 32.684 21.5797 32.588C21.6757 32.492 21.7237 32.344 21.7237 32.144V29.228C21.7237 29.028 21.6757 28.884 21.5797 28.796C21.4917 28.7 21.3517 28.652 21.1597 28.652H19.7317ZM32.5608 35H28.7808C27.7808 35 27.0368 34.8 26.5488 34.4C26.0688 34 25.8288 33.384 25.8288 32.552V28.808C25.8288 27.976 26.0688 27.36 26.5488 26.96C27.0368 26.56 27.7808 26.36 28.7808 26.36H31.7808C31.9328 26.36 32.0408 26.396 32.1048 26.468C32.1768 26.532 32.2128 26.64 32.2128 26.792V28.244C32.2128 28.396 32.1768 28.508 32.1048 28.58C32.0408 28.644 31.9328 28.676 31.7808 28.676H29.2848C29.0368 28.676 28.8528 28.728 28.7328 28.832C28.6128 28.928 28.5528 29.076 28.5528 29.276V32.144C28.5528 32.344 28.5968 32.492 28.6848 32.588C28.7808 32.684 28.9208 32.732 29.1048 32.732H30.2688V30.86C30.2688 30.708 30.3008 30.6 30.3648 30.536C30.4368 30.464 30.5488 30.428 30.7008 30.428H32.5608C32.7128 30.428 32.8208 30.464 32.8848 30.536C32.9568 30.6 32.9928 30.708 32.9928 30.86V34.568C32.9928 34.72 32.9568 34.832 32.8848 34.904C32.8208 34.968 32.7128 35 32.5608 35ZM38.8665 31.724L35.6145 32.168C35.4625 32.184 35.3505 32.164 35.2785 32.108C35.2145 32.052 35.1705 31.948 35.1465 31.796L34.8945 30.212C34.8705 30.06 34.8905 29.944 34.9545 29.864C35.0265 29.784 35.1385 29.736 35.2905 29.72L37.6785 29.384C37.7985 29.368 37.8825 29.332 37.9305 29.276C37.9785 29.22 38.0025 29.132 38.0025 29.012C38.0025 28.9 37.9745 28.816 37.9185 28.76C37.8625 28.704 37.7825 28.676 37.6785 28.676H34.3665C34.2145 28.676 34.1025 28.644 34.0305 28.58C33.9665 28.508 33.9345 28.396 33.9345 28.244V26.792C33.9345 26.64 33.9665 26.532 34.0305 26.468C34.1025 26.396 34.2145 26.36 34.3665 26.36H38.2425C39.0185 26.36 39.6265 26.544 40.0665 26.912C40.5065 27.272 40.7265 27.792 40.7265 28.472V29.732C40.7265 30.404 40.5585 30.884 40.2225 31.172C39.8865 31.46 39.4345 31.644 38.8665 31.724ZM37.5225 35H35.3265C35.1745 35 35.0625 34.968 34.9905 34.904C34.9265 34.832 34.8945 34.72 34.8945 34.568V32.996C34.8945 32.844 34.9265 32.736 34.9905 32.672C35.0625 32.6 35.1745 32.564 35.3265 32.564H37.5225C37.6745 32.564 37.7825 32.6 37.8465 32.672C37.9185 32.736 37.9545 32.844 37.9545 32.996V34.568C37.9545 34.72 37.9185 34.832 37.8465 34.904C37.7825 34.968 37.6745 35 37.5225 35Z" fill="white"/>
</g>
<g clip-path="url(#clip1_2_123)">
<g filter="url(#filter1_d_2_123)">
<path d="M52.9625 26.25C53.7082 26.2493 54.4231 25.9526 54.95 25.425L57.6031 22.7812C57.69 22.6927 57.7935 22.6222 57.9078 22.5739C58.022 22.5256 58.1447 22.5005 58.2688 22.5H58.4375C59.6807 22.5 60.873 22.0061 61.7521 21.1271C62.6311 20.248 63.125 19.0557 63.125 17.8125V8.4375C63.125 7.1943 62.6311 6.00201 61.7521 5.12294C60.873 4.24386 59.6807 3.75 58.4375 3.75H41.5625C40.3193 3.75 39.127 4.24386 38.2479 5.12294C37.3689 6.00201 36.875 7.1943 36.875 8.4375V17.8125C36.875 18.4281 36.9962 19.0376 37.2318 19.6063C37.4674 20.175 37.8127 20.6918 38.2479 21.1271C38.6832 21.5623 39.2 21.9076 39.7687 22.1432C40.3374 22.3788 40.9469 22.5 41.5625 22.5H47.6562C47.9022 22.501 48.1379 22.5987 48.3125 22.7719L50.9375 25.4531C51.2052 25.7138 51.5221 25.9185 51.8698 26.0553C52.2175 26.1922 52.589 26.2583 52.9625 26.25Z" fill="white"/>
</g>
<path d="M41.08 17H39.84C39.7387 17 39.664 16.9787 39.616 16.936C39.5733 16.888 39.552 16.8133 39.552 16.712V11.528C39.552 11.4267 39.5733 11.3547 39.616 11.312C39.664 11.264 39.7387 11.24 39.84 11.24H42.288C43.0133 11.24 43.5093 11.384 43.776 11.672C44.0427 11.96 44.176 12.336 44.176 12.8V13.824C44.176 14.288 44.0427 14.664 43.776 14.952C43.5093 15.24 43.0133 15.384 42.288 15.384H41.368V16.712C41.368 16.8133 41.344 16.888 41.296 16.936C41.2533 16.9787 41.1813 17 41.08 17ZM41.352 12.736V13.944H42.072C42.2267 13.944 42.328 13.904 42.376 13.824C42.424 13.744 42.448 13.6533 42.448 13.552V13.128C42.448 13.0267 42.424 12.936 42.376 12.856C42.328 12.776 42.2267 12.736 42.072 12.736H41.352ZM47.9891 17H45.2931C45.1918 17 45.1171 16.9787 45.0691 16.936C45.0265 16.888 45.0051 16.8133 45.0051 16.712V11.528C45.0051 11.4267 45.0265 11.3547 45.0691 11.312C45.1171 11.264 45.1918 11.24 45.2931 11.24H47.9891C48.6558 11.24 49.1491 11.3733 49.4691 11.64C49.7945 11.9067 49.9571 12.3173 49.9571 12.872V15.368C49.9571 15.9227 49.7945 16.3333 49.4691 16.6C49.1491 16.8667 48.6558 17 47.9891 17ZM46.8211 12.768V15.488H47.7731C47.9011 15.488 47.9945 15.456 48.0531 15.392C48.1171 15.328 48.1491 15.2293 48.1491 15.096V13.152C48.1491 13.0187 48.1171 12.9227 48.0531 12.864C47.9945 12.8 47.9011 12.768 47.7731 12.768H46.8211ZM55.3739 17H52.8539C52.1872 17 51.6912 16.8667 51.3659 16.6C51.0459 16.3333 50.8859 15.9227 50.8859 15.368V12.872C50.8859 12.3173 51.0459 11.9067 51.3659 11.64C51.6912 11.3733 52.1872 11.24 52.8539 11.24H54.8539C54.9552 11.24 55.0272 11.264 55.0699 11.312C55.1179 11.3547 55.1419 11.4267 55.1419 11.528V12.496C55.1419 12.5973 55.1179 12.672 55.0699 12.72C55.0272 12.7627 54.9552 12.784 54.8539 12.784H53.1899C53.0245 12.784 52.9019 12.8187 52.8219 12.888C52.7419 12.952 52.7019 13.0507 52.7019 13.184V15.096C52.7019 15.2293 52.7312 15.328 52.7899 15.392C52.8539 15.456 52.9472 15.488 53.0699 15.488H53.8459V14.24C53.8459 14.1387 53.8672 14.0667 53.9099 14.024C53.9579 13.976 54.0325 13.952 54.1339 13.952H55.3739C55.4752 13.952 55.5472 13.976 55.5899 14.024C55.6379 14.0667 55.6619 14.1387 55.6619 14.24V16.712C55.6619 16.8133 55.6379 16.888 55.5899 16.936C55.5472 16.9787 55.4752 17 55.3739 17ZM59.5777 14.816L57.4097 15.112C57.3084 15.1227 57.2337 15.1093 57.1857 15.072C57.143 15.0347 57.1137 14.9653 57.0977 14.864L56.9297 13.808C56.9137 13.7067 56.927 13.6293 56.9697 13.576C57.0177 13.5227 57.0924 13.4907 57.1937 13.48L58.7857 13.256C58.8657 13.2453 58.9217 13.2213 58.9537 13.184C58.9857 13.1467 59.0017 13.088 59.0017 13.008C59.0017 12.9333 58.983 12.8773 58.9457 12.84C58.9084 12.8027 58.855 12.784 58.7857 12.784H56.5777C56.4764 12.784 56.4017 12.7627 56.3537 12.72C56.311 12.672 56.2897 12.5973 56.2897 12.496V11.528C56.2897 11.4267 56.311 11.3547 56.3537 11.312C56.4017 11.264 56.4764 11.24 56.5777 11.24H59.1617C59.679 11.24 60.0844 11.3627 60.3777 11.608C60.671 11.848 60.8177 12.1947 60.8177 12.648V13.488C60.8177 13.936 60.7057 14.256 60.4817 14.448C60.2577 14.64 59.9564 14.7627 59.5777 14.816ZM58.6817 17H57.2177C57.1164 17 57.0417 16.9787 56.9937 16.936C56.951 16.888 56.9297 16.8133 56.9297 16.712V15.664C56.9297 15.5627 56.951 15.4907 56.9937 15.448C57.0417 15.4 57.1164 15.376 57.2177 15.376H58.6817C58.783 15.376 58.855 15.4 58.8977 15.448C58.9457 15.4907 58.9697 15.5627 58.9697 15.664V16.712C58.9697 16.8133 58.9457 16.888 58.8977 16.936C58.855 16.9787 58.783 17 58.6817 17Z" fill="#DC143C"/>
</g>
<defs>
<filter id="filter0_d_2_123" x="-0.875" y="12.25" width="51.75" height="45.5012" filterUnits="userSpaceOnUse" color-interpolation-filters="sRGB">
<feFlood flood-opacity="0" result="BackgroundImageFix"/>
<feColorMatrix in="SourceAlpha" type="matrix" values="0 0 0 0 0 0 0 0 0 0 0 0 0 0 0 0 0 0 127 0" result="hardAlpha"/>
<feOffset dy="2"/>
<feGaussianBlur stdDeviation="2"/>
<feComposite in2="hardAlpha" operator="out"/>
<feColorMatrix type="matrix" values="0 0 0 0 0 0 0 0 0 0 0 0 0 0 0 0 0 0 0.25 0"/>
<feBlend mode="normal" in2="BackgroundImageFix" result="effect1_dropShadow_2_123"/>
<feBlend mode="normal" in="SourceGraphic" in2="effect1_dropShadow_2_123" result="shape"/>
</filter>
<filter id="filter1_d_2_123" x="32.875" y="1.75" width="34.25" height="30.5007" filterUnits="userSpaceOnUse" color-interpolation-filters="sRGB">
<feFlood flood-opacity="0" result="BackgroundImageFix"/>
<feColorMatrix in="SourceAlpha" type="matrix" values="0 0 0 0 0 0 0 0 0 0 0 0 0 0 0 0 0 0 127 0" result="hardAlpha"/>
<feOffset dy="2"/>
<feGaussianBlur stdDeviation="2"/>
<feComposite in2="hardAlpha" operator="out"/>
<feColorMatrix type="matrix" values="0 0 0 0 0 0 0 0 0 0 0 0 0 0 0 0 0 0 0.25 0"/>
<feBlend mode="normal" in2="BackgroundImageFix" result="effect1_dropShadow_2_123"/>
<feBlend mode="normal" in="SourceGraphic" in2="effect1_dropShadow_2_123" result="shape"/>
</filter>
<clipPath id="clip0_2_123">
<rect width="50" height="50" fill="white" transform="translate(0 8)"/>
</clipPath>
<clipPath id="clip1_2_123">
<rect width="30" height="30" fill="white" transform="translate(35)"/>
</clipPath>
</defs>
</svg>
