<svg width="50" height="50" viewBox="0 0 50 50" fill="none" xmlns="http://www.w3.org/2000/svg">
<g clip-path="url(#clip0_2_130)">
<g filter="url(#filter0_d_2_130)">
<path d="M20.0625 43.75C18.9688 43.75 17.8782 42.8793 17 42L12.3281 37.9687C12.1834 37.8211 12.0108 37.7037 11.8204 37.6232C11.63 37.5427 11.4255 37.5009 11.2188 37.5H10.9375C8.8655 37.5 6.87836 36.6769 5.41323 35.2118C3.9481 33.7466 3.125 31.7595 3.125 29.6875V14.0625C3.125 11.9905 3.9481 10.0034 5.41323 8.53823C6.87836 7.0731 8.8655 6.25 10.9375 6.25H39.0625C41.1345 6.25 43.1216 7.0731 44.5868 8.53823C46.0519 10.0034 46.875 11.9905 46.875 14.0625V29.6875C46.875 30.7135 46.6729 31.7294 46.2803 32.6772C45.8877 33.6251 45.3122 34.4863 44.5868 35.2118C43.8613 35.9372 43.0001 36.5127 42.0522 36.9053C41.1044 37.2979 40.0885 37.5 39.0625 37.5H28.9062C28.4963 37.5017 28.1035 37.6645 27.8125 37.9531L23 42C22.5539 42.4345 21.1719 43.2922 21.1719 43.2922C21.1719 43.2922 20.5312 43.75 20.0625 43.75Z" fill="#DC143C"/>
</g>
<path d="M12.12 27H10.26C10.108 27 9.996 26.968 9.924 26.904C9.86 26.832 9.828 26.72 9.828 26.568V18.792C9.828 18.64 9.86 18.532 9.924 18.468C9.996 18.396 10.108 18.36 10.26 18.36H13.932C15.02 18.36 15.764 18.576 16.164 19.008C16.564 19.44 16.764 20.004 16.764 20.7V22.236C16.764 22.932 16.564 23.496 16.164 23.928C15.764 24.36 15.02 24.576 13.932 24.576H12.552V26.568C12.552 26.72 12.516 26.832 12.444 26.904C12.38 26.968 12.272 27 12.12 27ZM12.528 20.604V22.416H13.608C13.84 22.416 13.992 22.356 14.064 22.236C14.136 22.116 14.172 21.98 14.172 21.828V21.192C14.172 21.04 14.136 20.904 14.064 20.784C13.992 20.664 13.84 20.604 13.608 20.604H12.528ZM22.4837 27H18.4397C18.2877 27 18.1757 26.968 18.1037 26.904C18.0397 26.832 18.0077 26.72 18.0077 26.568V18.792C18.0077 18.64 18.0397 18.532 18.1037 18.468C18.1757 18.396 18.2877 18.36 18.4397 18.36H22.4837C23.4837 18.36 24.2237 18.56 24.7037 18.96C25.1917 19.36 25.4357 19.976 25.4357 20.808V24.552C25.4357 25.384 25.1917 26 24.7037 26.4C24.2237 26.8 23.4837 27 22.4837 27ZM20.7317 20.652V24.732H22.1597C22.3517 24.732 22.4917 24.684 22.5797 24.588C22.6757 24.492 22.7237 24.344 22.7237 24.144V21.228C22.7237 21.028 22.6757 20.884 22.5797 20.796C22.4917 20.7 22.3517 20.652 22.1597 20.652H20.7317ZM33.5608 27H29.7808C28.7808 27 28.0368 26.8 27.5488 26.4C27.0688 26 26.8288 25.384 26.8288 24.552V20.808C26.8288 19.976 27.0688 19.36 27.5488 18.96C28.0368 18.56 28.7808 18.36 29.7808 18.36H32.7808C32.9328 18.36 33.0408 18.396 33.1048 18.468C33.1768 18.532 33.2128 18.64 33.2128 18.792V20.244C33.2128 20.396 33.1768 20.508 33.1048 20.58C33.0408 20.644 32.9328 20.676 32.7808 20.676H30.2848C30.0368 20.676 29.8528 20.728 29.7328 20.832C29.6128 20.928 29.5528 21.076 29.5528 21.276V24.144C29.5528 24.344 29.5968 24.492 29.6848 24.588C29.7808 24.684 29.9208 24.732 30.1048 24.732H31.2688V22.86C31.2688 22.708 31.3008 22.6 31.3648 22.536C31.4368 22.464 31.5488 22.428 31.7008 22.428H33.5608C33.7128 22.428 33.8208 22.464 33.8848 22.536C33.9568 22.6 33.9928 22.708 33.9928 22.86V26.568C33.9928 26.72 33.9568 26.832 33.8848 26.904C33.8208 26.968 33.7128 27 33.5608 27ZM39.8665 23.724L36.6145 24.168C36.4625 24.184 36.3505 24.164 36.2785 24.108C36.2145 24.052 36.1705 23.948 36.1465 23.796L35.8945 22.212C35.8705 22.06 35.8905 21.944 35.9545 21.864C36.0265 21.784 36.1385 21.736 36.2905 21.72L38.6785 21.384C38.7985 21.368 38.8825 21.332 38.9305 21.276C38.9785 21.22 39.0025 21.132 39.0025 21.012C39.0025 20.9 38.9745 20.816 38.9185 20.76C38.8625 20.704 38.7825 20.676 38.6785 20.676H35.3665C35.2145 20.676 35.1025 20.644 35.0305 20.58C34.9665 20.508 34.9345 20.396 34.9345 20.244V18.792C34.9345 18.64 34.9665 18.532 35.0305 18.468C35.1025 18.396 35.2145 18.36 35.3665 18.36H39.2425C40.0185 18.36 40.6265 18.544 41.0665 18.912C41.5065 19.272 41.7265 19.792 41.7265 20.472V21.732C41.7265 22.404 41.5585 22.884 41.2225 23.172C40.8865 23.46 40.4345 23.644 39.8665 23.724ZM38.5225 27H36.3265C36.1745 27 36.0625 26.968 35.9905 26.904C35.9265 26.832 35.8945 26.72 35.8945 26.568V24.996C35.8945 24.844 35.9265 24.736 35.9905 24.672C36.0625 24.6 36.1745 24.564 36.3265 24.564H38.5225C38.6745 24.564 38.7825 24.6 38.8465 24.672C38.9185 24.736 38.9545 24.844 38.9545 24.996V26.568C38.9545 26.72 38.9185 26.832 38.8465 26.904C38.7825 26.968 38.6745 27 38.5225 27Z" fill="#FEFEFE"/>
</g>
<defs>
<filter id="filter0_d_2_130" x="-0.875" y="4.25" width="51.75" height="45.5" filterUnits="userSpaceOnUse" color-interpolation-filters="sRGB">
<feFlood flood-opacity="0" result="BackgroundImageFix"/>
<feColorMatrix in="SourceAlpha" type="matrix" values="0 0 0 0 0 0 0 0 0 0 0 0 0 0 0 0 0 0 127 0" result="hardAlpha"/>
<feOffset dy="2"/>
<feGaussianBlur stdDeviation="2"/>
<feComposite in2="hardAlpha" operator="out"/>
<feColorMatrix type="matrix" values="0 0 0 0 0 0 0 0 0 0 0 0 0 0 0 0 0 0 0.25 0"/>
<feBlend mode="normal" in2="BackgroundImageFix" result="effect1_dropShadow_2_130"/>
<feBlend mode="normal" in="SourceGraphic" in2="effect1_dropShadow_2_130" result="shape"/>
</filter>
<clipPath id="clip0_2_130">
<rect width="50" height="50" fill="white"/>
</clipPath>
</defs>
</svg>
