<svg id="eytsXbHnvdq1" xmlns="http://www.w3.org/2000/svg" xmlns:xlink="http://www.w3.org/1999/xlink" viewBox="0 0 470 420" shape-rendering="geometricPrecision" text-rendering="geometricPrecision">
<style><![CDATA[
#eytsXbHnvdq3_tr {animation: eytsXbHnvdq3_tr__tr 3000ms linear 1 normal forwards}@keyframes eytsXbHnvdq3_tr__tr { 0% {transform: translate(235px,208px) rotate(0deg)} 83.333333% {transform: translate(235px,208px) rotate(0deg);animation-timing-function: cubic-bezier(0.42,0,0.58,1)} 100% {transform: translate(235px,208px) rotate(8deg)}} #eytsXbHnvdq3 {animation: eytsXbHnvdq3_c_o 3000ms linear 1 normal forwards}@keyframes eytsXbHnvdq3_c_o { 0% {opacity: 0} 50% {opacity: 0;animation-timing-function: cubic-bezier(0.42,0,0.58,1)} 100% {opacity: 1}} #eytsXbHnvdq5_to {animation: eytsXbHnvdq5_to__to 3000ms linear 1 normal forwards}@keyframes eytsXbHnvdq5_to__to { 0% {transform: translate(241.21801px,150.440002px)} 66.666667% {transform: translate(241.21801px,150.440002px);animation-timing-function: cubic-bezier(0.42,0,0.58,1)} 73.333333% {transform: translate(241.21801px,187.440002px)} 100% {transform: translate(241.21801px,187.440002px)}} #eytsXbHnvdq5_tr {animation: eytsXbHnvdq5_tr__tr 3000ms linear 1 normal forwards}@keyframes eytsXbHnvdq5_tr__tr { 0% {transform: rotate(0deg)} 66.666667% {transform: rotate(0deg)} 76.666667% {transform: rotate(4deg)} 90% {transform: rotate(-4deg)} 100% {transform: rotate(0deg)}} #eytsXbHnvdq5_ts {animation: eytsXbHnvdq5_ts__ts 3000ms linear 1 normal forwards}@keyframes eytsXbHnvdq5_ts__ts { 0% {transform: scale(1,1)} 66.666667% {transform: scale(1,1);animation-timing-function: cubic-bezier(0.42,0,0.58,1)} 83.333333% {transform: scale(1.3,1.3);animation-timing-function: cubic-bezier(0.42,0,0.58,1)} 100% {transform: scale(1,1)}} #eytsXbHnvdq5 {animation: eytsXbHnvdq5_c_o 3000ms linear 1 normal forwards}@keyframes eytsXbHnvdq5_c_o { 0% {opacity: 0} 66.666667% {opacity: 0} 73.333333% {opacity: 1} 100% {opacity: 1}} #eytsXbHnvdq6_ts {animation: eytsXbHnvdq6_ts__ts 3000ms linear 1 normal forwards}@keyframes eytsXbHnvdq6_ts__ts { 0% {transform: translate(235px,210.000007px) scale(1,1)} 16.666667% {transform: translate(235px,210.000007px) scale(1,1);animation-timing-function: cubic-bezier(0.42,0,0.58,1)} 33.333333% {transform: translate(235px,210.000007px) scale(1.3,1.3)} 100% {transform: translate(235px,210.000007px) scale(1.3,1.3)}} #eytsXbHnvdq6 {animation: eytsXbHnvdq6_c_o 3000ms linear 1 normal forwards}@keyframes eytsXbHnvdq6_c_o { 0% {opacity: 0;animation-timing-function: cubic-bezier(0.42,0,0.58,1)} 16.666667% {opacity: 1;animation-timing-function: cubic-bezier(0.42,0,0.58,1)} 33.333333% {opacity: 0} 100% {opacity: 0}} #eytsXbHnvdq7_ts {animation: eytsXbHnvdq7_ts__ts 3000ms linear 1 normal forwards}@keyframes eytsXbHnvdq7_ts__ts { 0% {transform: translate(220px,186.029266px) scale(1,1)} 33.333333% {transform: translate(220px,186.029266px) scale(1,1);animation-timing-function: cubic-bezier(0.42,0,0.58,1)} 50% {transform: translate(220px,186.029266px) scale(1.3,1.3)} 100% {transform: translate(220px,186.029266px) scale(1.3,1.3)}} #eytsXbHnvdq7 {animation: eytsXbHnvdq7_c_o 3000ms linear 1 normal forwards}@keyframes eytsXbHnvdq7_c_o { 0% {opacity: 0} 16.666667% {opacity: 0;animation-timing-function: cubic-bezier(0.42,0,0.58,1)} 33.333333% {opacity: 1;animation-timing-function: cubic-bezier(0.42,0,0.58,1)} 50% {opacity: 0} 100% {opacity: 0}} #eytsXbHnvdq10_ts {animation: eytsXbHnvdq10_ts__ts 3000ms linear 1 normal forwards}@keyframes eytsXbHnvdq10_ts__ts { 0% {transform: translate(235.000016px,210px) scale(1,1)} 50% {transform: translate(235.000016px,210px) scale(1,1);animation-timing-function: cubic-bezier(0.42,0,0.58,1)} 66.666667% {transform: translate(235.000016px,210px) scale(1.3,1.3)} 100% {transform: translate(235.000016px,210px) scale(1.3,1.3)}} #eytsXbHnvdq10 {animation: eytsXbHnvdq10_c_o 3000ms linear 1 normal forwards}@keyframes eytsXbHnvdq10_c_o { 0% {opacity: 0} 33.333333% {opacity: 0;animation-timing-function: cubic-bezier(0.42,0,0.58,1)} 50% {opacity: 1;animation-timing-function: cubic-bezier(0.42,0,0.58,1)} 66.666667% {opacity: 0} 100% {opacity: 0}}
]]></style>
<defs><filter id="eytsXbHnvdq3-filter" x="-150%" width="400%" y="-150%" height="400%"><feGaussianBlur id="eytsXbHnvdq3-filter-drop-shadow-0-blur" in="SourceAlpha" stdDeviation="30,30"/><feOffset id="eytsXbHnvdq3-filter-drop-shadow-0-offset" dx="0" dy="2" result="tmp"/><feFlood id="eytsXbHnvdq3-filter-drop-shadow-0-flood" flood-color="rgba(0,255,255,0.25)"/><feComposite id="eytsXbHnvdq3-filter-drop-shadow-0-composite" operator="in" in2="tmp"/><feMerge id="eytsXbHnvdq3-filter-drop-shadow-0-merge" result="result"><feMergeNode id="eytsXbHnvdq3-filter-drop-shadow-0-merge-node-1"/><feMergeNode id="eytsXbHnvdq3-filter-drop-shadow-0-merge-node-2" in="SourceGraphic"/></feMerge></filter><linearGradient id="eytsXbHnvdq4-fill" x1="60" y1="208" x2="410" y2="208" spreadMethod="pad" gradientUnits="userSpaceOnUse" gradientTransform="translate(0 0)"><stop id="eytsXbHnvdq4-fill-0" offset="0%" stop-color="#f0f"/><stop id="eytsXbHnvdq4-fill-1" offset="100%" stop-color="#0ff"/></linearGradient><linearGradient id="eytsXbHnvdq6-fill" x1="60.0744" y1="185.782" x2="380.058" y2="185.782" spreadMethod="pad" gradientUnits="userSpaceOnUse" gradientTransform="translate(0 0)"><stop id="eytsXbHnvdq6-fill-0" offset="0%" stop-color="#f0f"/><stop id="eytsXbHnvdq6-fill-1" offset="100%" stop-color="#0ff"/></linearGradient><linearGradient id="eytsXbHnvdq8-fill" x1="149.827" y1="162.087" x2="173.42" y2="162.023" spreadMethod="pad" gradientUnits="userSpaceOnUse" gradientTransform="translate(0 0)"><stop id="eytsXbHnvdq8-fill-0" offset="0%" stop-color="#f0f"/><stop id="eytsXbHnvdq8-fill-1" offset="100%" stop-color="#0ff"/></linearGradient><linearGradient id="eytsXbHnvdq9-fill" x1="77.9259" y1="180.815" x2="361.037" y2="179.778" spreadMethod="pad" gradientUnits="userSpaceOnUse" gradientTransform="translate(0 0)"><stop id="eytsXbHnvdq9-fill-0" offset="0%" stop-color="#f0f"/><stop id="eytsXbHnvdq9-fill-1" offset="100%" stop-color="#0ff"/></linearGradient><linearGradient id="eytsXbHnvdq14-fill" x1="254.741" y1="247.387" x2="88.9008" y2="195.961" spreadMethod="pad" gradientUnits="userSpaceOnUse" gradientTransform="translate(0 0)"><stop id="eytsXbHnvdq14-fill-0" offset="0%" stop-color="#f0f"/><stop id="eytsXbHnvdq14-fill-1" offset="100%" stop-color="#0ff"/></linearGradient><linearGradient id="eytsXbHnvdq15-fill" x1="351.006" y1="121.982" x2="236.134" y2="86.361" spreadMethod="pad" gradientUnits="userSpaceOnUse" gradientTransform="translate(0 0)"><stop id="eytsXbHnvdq15-fill-0" offset="0%" stop-color="#f0f"/><stop id="eytsXbHnvdq15-fill-1" offset="100%" stop-color="#0ff"/></linearGradient></defs><g><g id="eytsXbHnvdq3_tr" transform="translate(235,208) rotate(0)"><g id="eytsXbHnvdq3" transform="translate(-235,-208)" opacity="0" filter="url(#eytsXbHnvdq3-filter)"><path d="M195.5,358c-8.75,0-17.474-6.965-24.5-14l-37.375-32.25c-1.158-1.181-2.538-2.121-4.062-2.764-1.523-.644-3.159-.979-4.813-.986h-2.25c-16.576,0-32.4732-6.585-44.1942-18.306s-18.3058-27.618-18.3058-44.194v-125c0-16.576,6.5848-32.4732,18.3058-44.1942s27.6182-18.3058,44.1942-18.3058h225c16.576,0,32.473,6.5848,44.194,18.3058s18.306,27.6182,18.306,44.1942v125c0,8.208-1.617,16.335-4.758,23.918-3.14,7.583-7.744,14.473-13.548,20.276-5.803,5.804-12.693,10.408-20.276,13.548-7.583,3.141-15.71,4.758-23.918,4.758h-81.25c-3.279.014-6.422,1.316-8.75,3.625L219,344c-3.569,3.476-14.625,10.337-14.625,10.337s-5.126,3.663-8.875,3.663Z" fill="url(#eytsXbHnvdq4-fill)"/></g></g><g id="eytsXbHnvdq5_to" transform="translate(241.21801,150.440002)"><g id="eytsXbHnvdq5_tr" transform="rotate(0)"><g id="eytsXbHnvdq5_ts" transform="scale(1,1)"><path id="eytsXbHnvdq5" d="M131.96,222h-14.88c-1.216,0-2.112-.256-2.688-.768-.512-.576-.768-1.472-.768-2.688v-62.208c0-1.216.256-2.08.768-2.592.576-.576,1.472-.864,2.688-.864h29.376c8.704,0,14.656,1.728,17.856,5.184s4.8,7.968,4.8,13.536v12.288c0,5.568-1.6,10.08-4.8,13.536s-9.152,5.184-17.856,5.184h-11.04v15.936c0,1.216-.288,2.112-.864,2.688-.512.512-1.376.768-2.592.768Zm3.264-51.168v14.496h8.64c1.856,0,3.072-.48,3.648-1.44s.864-2.048.864-3.264v-5.088c0-1.216-.288-2.304-.864-3.264s-1.792-1.44-3.648-1.44h-8.64ZM214.87,222h-32.352c-1.216,0-2.112-.256-2.688-.768-.512-.576-.768-1.472-.768-2.688v-62.208c0-1.216.256-2.08.768-2.592.576-.576,1.472-.864,2.688-.864h32.352c8,0,13.92,1.6,17.76,4.8c3.904,3.2,5.856,8.128,5.856,14.784v29.952c0,6.656-1.952,11.584-5.856,14.784-3.84,3.2-9.76,4.8-17.76,4.8Zm-14.016-50.784v32.64h11.424c1.536,0,2.656-.384,3.36-1.152.768-.768,1.152-1.952,1.152-3.552v-23.328c0-1.6-.384-2.752-1.152-3.456-.704-.768-1.824-1.152-3.36-1.152h-11.424ZM303.487,222h-30.24c-8,0-13.952-1.6-17.856-4.8-3.84-3.2-5.76-8.128-5.76-14.784v-29.952c0-6.656,1.92-11.584,5.76-14.784c3.904-3.2,9.856-4.8,17.856-4.8h24c1.216,0,2.08.288,2.592.864.576.512.864,1.376.864,2.592v11.616c0,1.216-.288,2.112-.864,2.688-.512.512-1.376.768-2.592.768h-19.968c-1.984,0-3.456.416-4.416,1.248-.96.768-1.44,1.952-1.44,3.552v22.944c0,1.6.352,2.784,1.056,3.552.768.768,1.888,1.152,3.36,1.152h9.312v-14.976c0-1.216.256-2.08.768-2.592.576-.576,1.472-.864,2.688-.864h14.88c1.216,0,2.08.288,2.592.864.576.512.864,1.376.864,2.592v29.664c0,1.216-.288,2.112-.864,2.688-.512.512-1.376.768-2.592.768Zm50.445-26.208l-26.016,3.552c-1.216.128-2.112-.032-2.688-.48-.512-.448-.864-1.28-1.056-2.496l-2.016-12.672c-.192-1.216-.032-2.144.48-2.784.576-.64,1.472-1.024,2.688-1.152l19.104-2.688c.96-.128,1.632-.416,2.016-.864s.576-1.152.576-2.112c0-.896-.224-1.568-.672-2.016s-1.088-.672-1.92-.672h-26.496c-1.216,0-2.112-.256-2.688-.768-.512-.576-.768-1.472-.768-2.688v-11.616c0-1.216.256-2.08.768-2.592.576-.576,1.472-.864,2.688-.864h31.008c6.208,0,11.072,1.472,14.592,4.416c3.52,2.88,5.28,7.04,5.28,12.48v10.08c0,5.376-1.344,9.216-4.032,11.52s-6.304,3.776-10.848,4.416ZM343.18,222h-17.568c-1.216,0-2.112-.256-2.688-.768-.512-.576-.768-1.472-.768-2.688v-12.576c0-1.216.256-2.08.768-2.592.576-.576,1.472-.864,2.688-.864h17.568c1.216,0,2.08.288,2.592.864.576.512.864,1.376.864,2.592v12.576c0,1.216-.288,2.112-.864,2.688-.512.512-1.376.768-2.592.768Z" transform="translate(-241.21801,-187.440002)" opacity="0" fill="#fefefe"/></g></g></g><g id="eytsXbHnvdq6_ts" transform="translate(235,210.000007) scale(1,1)"><path id="eytsXbHnvdq6" d="M200.1,232.517h-101.095c-2.3881,0-4.5771-1.791-4.9751-4.378l-.5971-4.179h-19.1044c-2.7861,0-5.1742-2.388-5.1742-5.174v-10.149l-4.1791-.199C62.1891,208.239,60,206.05,60,203.264v-49.354c0-2.587,2.1891-4.975,4.9751-5.174l4.1791-.199v-15.92c0-2.985,2.3881-5.174,5.1742-5.174h88.3586l.796-9.95c.398-2.588,2.587-4.777,5.174-4.777h101.094c2.587,0,4.776,2.189,5.174,4.777l.796,9.95h12.936c2.786,0,5.174,2.189,5.174,5.174v86.169c0,2.786-2.388,5.174-5.174,5.174h-82.786l-.597,4.179c-.398,2.587-2.587,4.378-5.174,4.378Zm114.427-16.318v-22.289c0-2.786,2.189-5.174,5.174-5.174h49.951v-68.855h-54.926c-2.786,0-5.174-2.189-5.174-5.175v-68.8553c0-2.985,2.388-5.1741,5.174-5.1741c2.985,0,5.175,2.1891,5.175,5.1741v63.6813h54.925c2.985,0,5.174,2.388,5.174,5.174v79.204c0,2.986-2.189,5.175-5.174,5.175h-49.95v17.114c4.577.398,8.159,4.378,8.159,9.154v4.179h-26.667v-4.179c0-4.776,3.582-8.756,8.159-9.154Zm2.587,139.303c-22.885-1.194-41.194-20.298-41.194-43.582v-9.353l-1.791-.398c-2.388-.398-3.98-2.587-3.98-4.975v-27.662c0-2.388,1.592-4.577,3.98-4.975l1.791-.398v-8.358c0-4.378,1.393-8.358,3.582-11.542l37.612,64.477v46.766Zm4.976-46.766l37.811-64.477c2.189,3.184,3.383,7.164,3.383,11.542v34.428c2.388.597,3.98,2.587,3.98,4.975v27.662c0,2.587-1.791,4.577-4.378,4.975l-2.786.597c-6.369,15.522-21.095,26.268-38.01,27.064v-46.766ZM282.886,240.08c3.781-3.184,8.756-5.374,14.129-5.374h20.099v14.13c-3.98,1.194-6.965,4.776-6.965,9.154v7.96c0,4.179,2.985,7.96,6.965,8.955v23.881L282.886,240.08Zm39.204-5.374h20.298c5.373,0,10.348,2.19,13.93,5.374L322.09,298.786v-23.881c3.98-.995,6.965-4.776,6.965-8.955v-7.96c0-4.378-2.985-7.96-6.965-9.154v-14.13Zm-2.389,18.906c2.389,0,4.379,1.99,4.379,4.378v7.96c0,2.388-1.99,4.378-4.379,4.378-2.388,0-4.378-1.99-4.378-4.378v-7.96c0-2.388,1.99-4.378,4.378-4.378ZM214.03,95.005v-34.4279c0-2.7861,2.388-5.1741,5.174-5.1741h63.881v-34.2289c0-2.786,2.189-5.1741,5.174-5.1741c2.786,0,4.975,2.3881,4.975,5.1741v39.403c0,2.7861-2.189,5.1741-4.975,5.1741h-63.881v29.2538h3.184c5.572,0,10.149,4.5771,10.149,10.149v2.388h-37.014v-2.388c0-5.5719,4.577-10.149,10.149-10.149h3.184ZM141.99,202.667c1.393,0,2.587-.995,2.587-2.388v-17.115c0-1.393-1.194-2.587-2.587-2.587h-17.114c-1.393,0-2.388,1.194-2.388,2.587v17.115c0,1.393.995,2.388,2.388,2.388h17.114Zm-14.527-4.975v-12.14h12.139v12.14h-12.139Zm-17.513,4.975c1.393,0,2.587-.995,2.587-2.388v-17.115c0-1.393-1.194-2.587-2.587-2.587h-17.1142c-1.393,0-2.388,1.194-2.388,2.587v17.115c0,1.393.995,2.388,2.388,2.388h17.1142Zm-14.5271-4.975v-12.14h12.1391v12.14h-12.1391ZM141.99,170.627c1.393,0,2.587-.995,2.587-2.388v-17.115c0-1.393-1.194-2.587-2.587-2.587h-17.114c-1.393,0-2.388,1.194-2.388,2.587v17.115c0,1.393.995,2.388,2.388,2.388h17.114Zm-14.527-4.975v-12.14h12.139v12.14h-12.139Zm-17.513,4.975c1.393,0,2.587-.995,2.587-2.388v-17.115c0-1.393-1.194-2.587-2.587-2.587h-17.1142c-1.393,0-2.388,1.194-2.388,2.587v17.115c0,1.393.995,2.388,2.388,2.388h17.1142Zm-14.5271-4.975v-12.14h12.1391v12.14h-12.1391ZM206.07,202.667c1.393,0,2.587-.995,2.587-2.388v-17.115c0-1.393-1.194-2.587-2.587-2.587h-49.155c-1.393,0-2.587,1.194-2.587,2.587v17.115c0,1.393,1.194,2.388,2.587,2.388h49.155Zm-46.767-4.975v-12.14h44.379v12.14h-44.379Zm110.846,4.975c1.393,0,2.388-.995,2.388-2.388v-17.115c0-1.393-.995-2.587-2.388-2.587h-17.114c-1.393,0-2.587,1.194-2.587,2.587v17.115c0,1.393,1.194,2.388,2.587,2.388h17.114Zm-14.726-4.975v-12.14h12.139v12.14h-12.139Zm-17.314,4.975c1.393,0,2.588-.995,2.588-2.388v-17.115c0-1.393-1.195-2.587-2.588-2.587h-17.114c-1.393,0-2.587,1.194-2.587,2.587v17.115c0,1.393,1.194,2.388,2.587,2.388h17.114Zm-14.527-4.975v-12.14h11.94v12.14h-11.94Zm46.567-27.065c1.393,0,2.388-.995,2.388-2.388v-17.115c0-1.393-.995-2.587-2.388-2.587h-17.114c-1.393,0-2.587,1.194-2.587,2.587v17.115c0,1.393,1.194,2.388,2.587,2.388h17.114Zm-14.726-4.975v-12.14h12.139v12.14h-12.139Zm-17.314,4.975c1.393,0,2.588-.995,2.588-2.388v-17.115c0-1.393-1.195-2.587-2.588-2.587h-17.114c-1.393,0-2.587,1.194-2.587,2.587v17.115c0,1.393,1.194,2.388,2.587,2.388h17.114Zm-14.527-4.975v-12.14h11.94v12.14h-11.94Zm-17.512,4.975c1.393,0,2.587-.995,2.587-2.388v-17.115c0-1.393-1.194-2.587-2.587-2.587h-17.115c-1.393,0-2.587,1.194-2.587,2.587v17.115c0,1.393,1.194,2.388,2.587,2.388h17.115Zm-14.528-4.975v-12.14h11.941v12.14h-11.941Zm-17.512,4.975c1.393,0,2.587-.995,2.587-2.388v-17.115c0-1.393-1.194-2.587-2.587-2.587h-17.115c-1.393,0-2.587,1.194-2.587,2.587v17.115c0,1.393,1.194,2.388,2.587,2.388h17.115Zm-14.528-4.975v-12.14h11.941v12.14h-11.941Zm92.936-31.045c1.393,0,2.587-1.194,2.587-2.587s-1.194-2.388-2.587-2.388h-7.363c-1.393,0-2.587.995-2.587,2.388s1.194,2.587,2.587,2.587h7.363Zm-29.453,0c1.194,0,2.388-1.194,2.388-2.587s-1.194-2.388-2.388-2.388h-7.562c-1.393,0-2.388.995-2.388,2.388s.995,2.587,2.388,2.587h7.562Zm-29.652,0c1.393,0,2.587-1.194,2.587-2.587s-1.194-2.388-2.587-2.388h-7.363c-1.393,0-2.587.995-2.587,2.388s1.194,2.587,2.587,2.587h7.363Z" transform="translate(-220,-185.751007)" opacity="0" clip-rule="evenodd" fill="url(#eytsXbHnvdq6-fill)" fill-rule="evenodd"/></g><g id="eytsXbHnvdq7_ts" transform="translate(220,186.029266) scale(1,1)"><g id="eytsXbHnvdq7" transform="translate(-220,-186.029266)" opacity="0"><path d="M161.667,174.333c6.443,0,11.666-5.223,11.666-11.666c0-6.444-5.223-11.667-11.666-11.667-6.444,0-11.667,5.223-11.667,11.667c0,6.443,5.223,11.666,11.667,11.666Z" transform="translate(12.685341 18.451406)" fill="url(#eytsXbHnvdq8-fill)"/><path d="M278.333,81h-116.666c-21.66,0-42.432,8.6041-57.747,23.92C88.6042,120.235,80,141.007,80,162.667v70c-.0145,14.466,5.3466,28.421,15.0427,39.157c9.6963,10.735,23.0353,17.485,37.4283,18.939s28.812-2.492,40.46-11.072c11.647-8.579,19.69-21.181,22.569-35.358h49c2.879,14.177,10.922,26.779,22.569,35.358c11.648,8.58,26.067,12.526,40.46,11.072s27.732-8.204,37.428-18.939c9.696-10.736,15.058-24.691,15.043-39.157v-70c0-21.66-8.604-42.432-23.92-57.747C320.765,89.6041,299.993,81,278.333,81Zm0,46.667c2.308,0,4.563.684,6.482,1.966s3.414,3.104,4.297,5.236c.883,2.131,1.114,4.477.664,6.74s-1.561,4.342-3.193,5.974-3.711,2.743-5.974,3.193-4.609.219-6.74-.664c-2.132-.883-3.954-2.378-5.236-4.297s-1.966-4.174-1.966-6.482c0-3.094,1.229-6.061,3.417-8.249s5.155-3.417,8.249-3.417Zm-116.666,70c-6.923,0-13.69-2.053-19.445-5.899-5.756-3.846-10.242-9.312-12.891-15.707-2.649-6.396-3.342-13.433-1.992-20.223c1.351-6.789,4.684-13.025,9.579-17.92s11.131-8.228,17.921-9.579c6.789-1.35,13.826-.657,20.222,1.992c6.395,2.649,11.861,7.135,15.707,12.891c3.846,5.755,5.899,12.522,5.899,19.445c0,9.282-3.688,18.185-10.252,24.748-6.563,6.564-15.466,10.252-24.748,10.252ZM255,174.333c-2.307,0-4.563-.684-6.482-1.966-1.918-1.282-3.414-3.104-4.297-5.236s-1.114-4.477-.664-6.74c.451-2.264,1.562-4.342,3.193-5.974c1.632-1.632,3.711-2.743,5.974-3.193s4.609-.219,6.741.664c2.131.883,3.954,2.378,5.235,4.297c1.282,1.919,1.967,4.174,1.967,6.482c0,3.094-1.229,6.061-3.417,8.249s-5.156,3.417-8.25,3.417Zm23.333,23.334c-2.307,0-4.563-.685-6.481-1.967-1.919-1.281-3.414-3.104-4.297-5.235-.883-2.132-1.114-4.478-.664-6.741s1.561-4.342,3.193-5.974c1.631-1.631,3.71-2.742,5.973-3.193c2.263-.45,4.609-.219,6.741.664s3.954,2.379,5.236,4.297C289.316,181.437,290,183.693,290,186c0,3.094-1.229,6.062-3.417,8.25-2.188,2.187-5.155,3.417-8.25,3.417Zm23.334-23.334c-2.308,0-4.563-.684-6.482-1.966s-3.414-3.104-4.297-5.236-1.114-4.477-.664-6.74c.45-2.264,1.561-4.342,3.193-5.974s3.71-2.743,5.974-3.193c2.263-.45,4.608-.219,6.74.664s3.954,2.378,5.236,4.297s1.966,4.174,1.966,6.482c0,3.094-1.229,6.061-3.417,8.249s-5.155,3.417-8.249,3.417Z" transform="translate(12.5 19.975733)" fill="url(#eytsXbHnvdq9-fill)"/></g></g><g id="eytsXbHnvdq10_ts" transform="translate(235.000016,210) scale(1,1)"><g id="eytsXbHnvdq10" transform="translate(-229.003769,-186.000198)" opacity="0"><g mask="url(#eytsXbHnvdq16)"><g><g><path d="M282.447,199.54c.001-7.052-1.387-14.034-4.085-20.549-2.697-6.515-6.652-12.434-11.638-17.42s-10.906-8.941-17.42-11.639c-6.515-2.698-13.497-4.086-20.549-4.085-8.535,0-16.946,2.037-24.535,5.944-7.588,3.907-14.133,9.57-19.091,16.517-4.959-6.946-11.504-12.608-19.092-16.515s-16-5.945-24.534-5.946c-7.052-.001-14.034,1.387-20.549,4.085-6.514,2.698-12.434,6.653-17.42,11.639-4.9857,4.986-8.9406,10.905-11.6385,17.42s-4.086,13.497-4.085,20.549c0,4.192.529,8.281,1.4448,12.197c7.4605,46.318,58.9577,95.203,95.8737,108.616c36.908-13.413,88.421-62.298,95.85-108.6.966-4,1.459-8.099,1.468-12.213Z" fill="url(#eytsXbHnvdq14-fill)"/><path d="M370.197,88.8395c.001-4.8845-.96-9.7212-2.829-14.2341-1.868-4.5128-4.608-8.6132-8.062-12.067-3.453-3.4539-7.554-6.1934-12.067-8.0621s-9.349-2.83-14.234-2.8289c-5.913.0003-11.741,1.4134-16.997,4.1213-5.257,2.708-9.791,6.6326-13.224,11.4471-3.433-4.8129-7.965-8.7365-13.22-11.4444-5.256-2.7079-11.081-4.1218-16.993-4.124-4.884-.0011-9.721.9602-14.234,2.8289s-8.613,4.6082-12.067,8.0621c-3.454,3.4538-6.193,7.5542-8.062,12.067-1.869,4.5129-2.83,9.3496-2.829,14.2341c0,2.9131.371,5.7394,1.003,8.4473c5.163,32.0922,40.839,65.9452,66.402,75.2372c25.563-9.292,61.248-43.145,66.411-75.2293.631-2.7158,1.002-5.5421,1.002-8.4552Z" fill="url(#eytsXbHnvdq15-fill)"/></g></g><mask id="eytsXbHnvdq16" mask-type="luminance" x="-150%" y="-150%" height="400%" width="400%"><g><path d="M79,36h300v300h-300v-300Z" fill="#fff"/></g></mask></g></g></g></g></svg>
