<?xml version="1.0" ?><svg id="Layer_1" style="enable-background:new 0 0 64 64;" version="1.1" viewBox="0 0 64 64" xml:space="preserve" xmlns="http://www.w3.org/2000/svg" xmlns:xlink="http://www.w3.org/1999/xlink"><style type="text/css">
	.st0{fill:url(#SVGID_1_);}
	.st1{fill:url(#SVGID_2_);}
	.st2{fill:url(#SVGID_3_);}
	.st3{fill:url(#SVGID_4_);}
	.st4{fill:url(#SVGID_5_);}
	.st5{fill:#FFFFFF;}
	.st6{fill:url(#SVGID_6_);}
	.st7{fill:url(#SVGID_7_);}
	.st8{fill:url(#SVGID_8_);}
	.st9{fill:url(#SVGID_9_);}
	.st10{fill:url(#SVGID_10_);}
	.st11{fill:#FFBF0B;}
	.st12{fill:#1A1A54;}
	.st13{fill:#DC2863;}
	.st14{fill:none;stroke:#1A1A54;stroke-width:3;stroke-linecap:round;stroke-linejoin:round;stroke-miterlimit:10;}
	.st15{fill:#0B85FF;}
	.st16{opacity:0.5;fill:#FFFFFF;}
	.st17{fill:#00AF64;}
	.st18{fill:#00D17C;}
	.st19{fill:none;stroke:#00D17C;stroke-width:3;stroke-linecap:round;stroke-linejoin:round;stroke-miterlimit:10;}
	.st20{fill:#8C5C3B;}
	.st21{opacity:0.1;fill:#1A1A54;}
	.st22{opacity:0.2;fill:#1A1A54;}
	.st23{fill:none;stroke:#FFFFFF;stroke-width:2;stroke-linecap:round;stroke-miterlimit:10;}
	.st24{fill:#E86942;}
	.st25{fill:#6642AD;}
	.st26{fill:url(#SVGID_11_);}
	.st27{fill:url(#SVGID_12_);}
	.st28{fill:url(#SVGID_13_);}
	.st29{opacity:0.2;}
	.st30{fill:none;stroke:#1A1A54;stroke-width:2;stroke-miterlimit:10;}
	.st31{fill:#E8E8EE;}
	.st32{fill:#D1D1DC;}
	.st33{fill:none;stroke:#D1D1DC;stroke-width:1.8172;stroke-linecap:round;stroke-miterlimit:10;}
	.st34{opacity:0.5;fill:#E8E8EE;}
	.st35{fill:none;stroke:#E8E8EE;stroke-width:7.1126;stroke-linecap:round;stroke-linejoin:round;stroke-miterlimit:10;}
	.st36{fill:none;stroke:#D1D1DC;stroke-width:2.3709;stroke-linecap:round;stroke-miterlimit:10;}
	.st37{fill:#F2AD00;}
	.st38{fill:none;stroke:#E8E8EE;stroke-width:5;stroke-linecap:round;stroke-linejoin:round;stroke-miterlimit:10;}
	.st39{fill:none;stroke:#FFFFFF;stroke-width:4;stroke-linecap:square;stroke-miterlimit:10;}
</style><circle class="st11" cx="32" cy="32" r="32"/><circle class="st11" cx="32" cy="32" r="32"/><rect class="st5" height="5" width="10" x="27" y="18"/><path class="st12" d="M32,48L32,48c-4.4,0-8-3.6-8-8v-4c0-1.1,0.9-2,2-2h12c1.1,0,2,0.9,2,2v4C40,44.4,36.4,48,32,48z"/><path class="st13" d="M32,48c2.7,0,5.1-1.3,6.5-3.4c-1.5-2-3.8-3.3-6.5-3.3s-5,1.3-6.5,3.3C26.9,46.7,29.3,48,32,48z"/><polygon class="st22" points="27,23 30,23 29.5,18 27,18 "/><polygon class="st22" points="37,23 33.9,23 34.5,18 37,18 "/><path class="st5" d="M24.4,31H10c-1.7,0-3-1.3-3-3v-9c0-1.7,1.3-3,3-3h15.5c1.8,0,3.2,1.6,3,3.4l-1.2,9C27.1,29.9,25.9,31,24.4,31z"/><polygon class="st13" points="10,28 10,19 25.5,19 24.4,28 "/><path class="st5" d="M39.6,31H54c1.7,0,3-1.3,3-3v-9c0-1.7-1.3-3-3-3H38.5c-1.8,0-3.2,1.6-3,3.4l1.2,9C36.9,29.9,38.1,31,39.6,31z"/><polygon class="st15" points="54,28 54,19 38.5,19 39.6,28 "/></svg>