<?xml version="1.0" encoding="utf-8"?>
<!-- Generator: Adobe Illustrator 27.9.0, SVG Export Plug-In . SVG Version: 6.00 Build 0)  -->
<svg version="1.1" id="Camada_1" xmlns="http://www.w3.org/2000/svg" xmlns:xlink="http://www.w3.org/1999/xlink" x="0px" y="0px"
	 viewBox="0 0 40 40" style="enable-background:new 0 0 40 40;" xml:space="preserve">
<style type="text/css">
	.st0{fill:#22073E;}
	.st1{fill:#703798;}
	.st2{fill:#21B2E1;}
	.st3{fill:#F0B24D;}
	.st4{fill:#EDECDA;}
</style>
<g>
	<rect x="-60.4" y="-114.81" class="st0" width="74.17" height="41.72"/>
	<rect x="13.77" y="-114.81" class="st1" width="74.17" height="41.72"/>
	<rect x="-60.4" y="-73.01" class="st2" width="74.17" height="41.72"/>
	<rect x="13.77" y="-73.01" class="st3" width="74.17" height="41.72"/>
	<rect x="-23.32" y="-93.95" class="st4" width="74.17" height="41.72"/>
</g>
<g>
	<text transform="matrix(1 0 0 1 -0.5271 -69.0376)" class="st1" style="font-family:'HexaframeCF-Heavy'; font-size:14.8541px;">pdg</text>
	<g>
		<path class="st1" d="M3.09-65.03v-1.8c0-0.1,0.08-0.19,0.19-0.19h0.75c0.16,0,0.3,0.03,0.42,0.1c0.12,0.06,0.22,0.15,0.28,0.27
			c0.07,0.12,0.1,0.25,0.1,0.41c0,0.16-0.03,0.29-0.1,0.41c-0.07,0.11-0.17,0.2-0.29,0.26c-0.12,0.06-0.27,0.09-0.44,0.09H3.64
			c-0.1,0-0.19-0.08-0.19-0.19v-0.08c0-0.1,0.08-0.19,0.19-0.19h0.26c0.07,0,0.13-0.01,0.18-0.04s0.09-0.06,0.11-0.1
			c0.03-0.05,0.04-0.1,0.04-0.16c0-0.06-0.01-0.12-0.04-0.16c-0.03-0.04-0.06-0.08-0.11-0.1c-0.05-0.02-0.11-0.04-0.18-0.04H3.87
			c-0.1,0-0.19,0.08-0.19,0.19v1.33c0,0.1-0.08,0.19-0.19,0.19H3.28C3.18-64.84,3.09-64.93,3.09-65.03z"/>
		<path class="st1" d="M7.11-65.93c0,0.24-0.05,0.45-0.14,0.61c-0.09,0.17-0.22,0.29-0.38,0.38c-0.16,0.09-0.34,0.13-0.54,0.13
			c-0.2,0-0.38-0.04-0.54-0.13c-0.16-0.09-0.29-0.21-0.38-0.38c-0.09-0.17-0.14-0.37-0.14-0.61c0-0.24,0.05-0.45,0.14-0.61
			c0.09-0.17,0.22-0.29,0.38-0.38c0.16-0.09,0.34-0.13,0.54-0.13c0.2,0,0.38,0.04,0.54,0.13c0.16,0.09,0.29,0.21,0.38,0.38
			C7.06-66.38,7.11-66.17,7.11-65.93z M6.5-65.93c0-0.13-0.02-0.24-0.05-0.33c-0.03-0.09-0.09-0.16-0.15-0.2
			c-0.07-0.05-0.15-0.07-0.25-0.07c-0.1,0-0.18,0.02-0.25,0.07c-0.07,0.05-0.12,0.11-0.15,0.2c-0.03,0.09-0.05,0.2-0.05,0.33
			c0,0.13,0.02,0.24,0.05,0.33c0.03,0.09,0.09,0.16,0.15,0.2c0.07,0.05,0.15,0.07,0.25,0.07c0.1,0,0.18-0.02,0.25-0.07
			c0.07-0.05,0.12-0.11,0.15-0.2C6.48-65.69,6.5-65.8,6.5-65.93z"/>
		<path class="st1" d="M8.16-64.84H7.51c-0.1,0-0.19-0.08-0.19-0.19v-1.8c0-0.1,0.08-0.19,0.19-0.19h0.64
			c0.22,0,0.42,0.04,0.58,0.13c0.16,0.09,0.29,0.21,0.38,0.37c0.09,0.16,0.13,0.36,0.13,0.58c0,0.23-0.04,0.42-0.13,0.58
			c-0.09,0.16-0.21,0.29-0.38,0.37C8.57-64.88,8.38-64.84,8.16-64.84z M7.91-65.53c0,0.1,0.08,0.19,0.19,0.19h0.04
			c0.11,0,0.2-0.02,0.28-0.05c0.08-0.03,0.13-0.09,0.17-0.18c0.04-0.08,0.06-0.2,0.06-0.36c0-0.15-0.02-0.27-0.06-0.36
			c-0.04-0.09-0.1-0.15-0.18-0.18c-0.08-0.03-0.17-0.05-0.29-0.05H8.1c-0.1,0-0.19,0.08-0.19,0.19V-65.53z"/>
		<path class="st1" d="M9.45-65.03v-1.8c0-0.1,0.08-0.19,0.19-0.19h1.2c0.1,0,0.19,0.08,0.19,0.19v0.1c0,0.1-0.08,0.19-0.19,0.19
			h-0.6c-0.1,0-0.19,0.08-0.19,0.19l0,0c0,0.1,0.08,0.19,0.19,0.19h0.52c0.1,0,0.19,0.08,0.19,0.19v0.1c0,0.1-0.08,0.19-0.19,0.19
			h-0.52c-0.1,0-0.19,0.08-0.19,0.19l0,0c0,0.1,0.08,0.19,0.19,0.19h0.6c0.1,0,0.19,0.08,0.19,0.19v0.1c0,0.1-0.08,0.19-0.19,0.19
			H9.64C9.54-64.84,9.45-64.93,9.45-65.03z"/>
		<path class="st1" d="M12.63-64.84h-0.65c-0.1,0-0.19-0.08-0.19-0.19v-1.8c0-0.1,0.08-0.19,0.19-0.19h0.64
			c0.22,0,0.42,0.04,0.58,0.13c0.16,0.09,0.29,0.21,0.38,0.37c0.09,0.16,0.13,0.36,0.13,0.58c0,0.23-0.04,0.42-0.13,0.58
			c-0.09,0.16-0.21,0.29-0.38,0.37C13.04-64.88,12.85-64.84,12.63-64.84z M12.38-65.53c0,0.1,0.08,0.19,0.19,0.19h0.04
			c0.11,0,0.2-0.02,0.28-0.05c0.08-0.03,0.13-0.09,0.17-0.18c0.04-0.08,0.06-0.2,0.06-0.36c0-0.15-0.02-0.27-0.06-0.36
			c-0.04-0.09-0.1-0.15-0.18-0.18c-0.08-0.03-0.17-0.05-0.29-0.05h-0.02c-0.1,0-0.19,0.08-0.19,0.19V-65.53z"/>
		<path class="st1" d="M14.22-64.84h-0.24c-0.13,0-0.22-0.12-0.18-0.25l0.6-1.8c0.03-0.08,0.1-0.13,0.18-0.13h0.54
			c0.08,0,0.15,0.05,0.18,0.13l0.6,1.8c0.04,0.12-0.05,0.25-0.18,0.25h-0.24c-0.08,0-0.16-0.05-0.18-0.13l-0.44-1.45h-0.02
			l-0.44,1.45C14.37-64.9,14.3-64.84,14.22-64.84z M14.43-65.7h0.83c0.1,0,0.19,0.08,0.19,0.19v0.07c0,0.1-0.08,0.19-0.19,0.19
			h-0.83c-0.1,0-0.19-0.08-0.19-0.19v-0.07C14.24-65.62,14.32-65.7,14.43-65.7z"/>
		<path class="st1" d="M16.11-65.03v-1.8c0-0.1,0.08-0.19,0.19-0.19h0.75c0.16,0,0.3,0.03,0.42,0.09c0.12,0.06,0.22,0.14,0.28,0.25
			c0.07,0.11,0.1,0.24,0.1,0.4c0,0.16-0.03,0.29-0.1,0.39c-0.07,0.11-0.17,0.19-0.29,0.24c-0.12,0.05-0.27,0.08-0.44,0.08h-0.37
			c-0.1,0-0.19-0.08-0.19-0.19v-0.08c0-0.1,0.08-0.19,0.19-0.19h0.26c0.07,0,0.13-0.01,0.18-0.03c0.05-0.02,0.09-0.05,0.11-0.08
			c0.03-0.04,0.04-0.09,0.04-0.15c0-0.06-0.01-0.11-0.04-0.15c-0.03-0.04-0.06-0.07-0.11-0.09c-0.05-0.02-0.11-0.03-0.18-0.03h-0.02
			c-0.1,0-0.19,0.08-0.19,0.19v1.33c0,0.1-0.08,0.19-0.19,0.19H16.3C16.2-64.84,16.11-64.93,16.11-65.03z M17.44-65.74l0.34,0.63
			c0.07,0.12-0.02,0.28-0.16,0.28h-0.21c-0.07,0-0.13-0.04-0.17-0.1l-0.33-0.63c-0.07-0.12,0.02-0.28,0.17-0.28h0.21
			C17.35-65.84,17.41-65.8,17.44-65.74z"/>
		<path class="st1" d="M20.13-66.3c-0.07,0-0.12-0.04-0.16-0.09c0,0,0-0.01-0.01-0.01c-0.02-0.03-0.04-0.05-0.07-0.07
			c-0.03-0.02-0.06-0.04-0.1-0.05c-0.04-0.01-0.08-0.02-0.13-0.02c-0.1,0-0.18,0.02-0.25,0.07c-0.07,0.05-0.12,0.12-0.16,0.21
			c-0.04,0.09-0.05,0.2-0.05,0.32c0,0.13,0.02,0.24,0.05,0.33c0.03,0.09,0.09,0.16,0.16,0.21c0.07,0.05,0.15,0.07,0.26,0.07
			c0.09,0,0.17-0.01,0.22-0.04c0.06-0.03,0.1-0.06,0.13-0.11c0.03-0.05,0.04-0.1,0.04-0.17l0.1,0.01h-0.31
			c-0.1,0-0.19-0.08-0.19-0.19v-0.05c0-0.1,0.08-0.19,0.19-0.19h0.59c0.1,0,0.19,0.08,0.19,0.19v0.11c0,0.2-0.04,0.37-0.13,0.51
			c-0.08,0.14-0.2,0.25-0.35,0.32c-0.15,0.07-0.32,0.11-0.51,0.11c-0.21,0-0.4-0.05-0.56-0.14c-0.16-0.09-0.29-0.22-0.37-0.39
			c-0.09-0.17-0.13-0.36-0.13-0.59c0-0.18,0.03-0.34,0.08-0.48c0.05-0.14,0.13-0.26,0.23-0.35c0.1-0.1,0.21-0.17,0.34-0.22
			c0.13-0.05,0.27-0.07,0.41-0.07c0.13,0,0.25,0.02,0.36,0.05c0.11,0.04,0.21,0.09,0.29,0.16c0.09,0.07,0.15,0.15,0.21,0.24
			c0.01,0.01,0.01,0.02,0.01,0.03c0.06,0.12-0.03,0.27-0.17,0.27H20.13z"/>
		<path class="st1" d="M22.95-65.93c0,0.24-0.05,0.45-0.14,0.61c-0.09,0.17-0.22,0.29-0.38,0.38c-0.16,0.09-0.34,0.13-0.54,0.13
			c-0.2,0-0.38-0.04-0.54-0.13c-0.16-0.09-0.29-0.21-0.38-0.38c-0.09-0.17-0.14-0.37-0.14-0.61c0-0.24,0.05-0.45,0.14-0.61
			c0.09-0.17,0.22-0.29,0.38-0.38c0.16-0.09,0.34-0.13,0.54-0.13c0.2,0,0.38,0.04,0.54,0.13c0.16,0.09,0.29,0.21,0.38,0.38
			C22.91-66.38,22.95-66.17,22.95-65.93z M22.35-65.93c0-0.13-0.02-0.24-0.05-0.33c-0.03-0.09-0.09-0.16-0.15-0.2
			c-0.07-0.05-0.15-0.07-0.25-0.07c-0.1,0-0.18,0.02-0.25,0.07c-0.07,0.05-0.12,0.11-0.15,0.2c-0.03,0.09-0.05,0.2-0.05,0.33
			c0,0.13,0.02,0.24,0.05,0.33c0.03,0.09,0.09,0.16,0.15,0.2c0.07,0.05,0.15,0.07,0.25,0.07c0.1,0,0.18-0.02,0.25-0.07
			c0.07-0.05,0.12-0.11,0.15-0.2C22.33-65.69,22.35-65.8,22.35-65.93z"/>
	</g>
</g>
<text transform="matrix(1 0 0 1 55.1779 -100.5132)" class="st4" style="font-family:'HexaframeCF-Heavy'; font-size:14.8541px;">pdg</text>
<text transform="matrix(1 0 0 1 -56.1541 -100.5132)" class="st4" style="font-family:'HexaframeCF-Heavy'; font-size:14.8541px;">pdg</text>
<text transform="matrix(1 0 0 1 55.1779 -36.3111)" class="st0" style="font-family:'HexaframeCF-Heavy'; font-size:14.8541px;">pdg</text>
<text transform="matrix(1 0 0 1 -56.1541 -36.3111)" class="st4" style="font-family:'HexaframeCF-Heavy'; font-size:14.8541px;">pdg</text>
<rect x="-17.08" y="-0.15" class="st4" width="74.17" height="41.72"/>
<g>
	<g>
		<path class="st1" d="M8.48,24.17H7.04c-0.35,0-0.52-0.17-0.52-0.52v-7.84c0-0.35,0.17-0.52,0.52-0.52h5.45
			c0.29,0,0.5,0.12,0.62,0.36l1.77,2.96c0.14,0.24,0.14,0.48,0,0.71l-1.77,2.97c-0.13,0.24-0.34,0.36-0.62,0.36h-1.86
			c-0.26,0-0.47-0.11-0.62-0.33l-0.58-0.68c-0.05-0.06-0.11-0.09-0.18-0.09h-0.1c-0.1,0-0.15,0.05-0.15,0.15v1.96
			C9,24,8.83,24.17,8.48,24.17z M9,17.52v2.9h2.45l0.89-1.46l-0.89-1.44H9z"/>
		<path class="st1" d="M19.71,22.94h-1.49c-0.29,0-0.5-0.12-0.62-0.36l-1.77-3.12c-0.14-0.24-0.14-0.48,0-0.71l1.77-3.1
			c0.13-0.24,0.34-0.36,0.62-0.36h3.49v-1.93c0-0.35,0.17-0.52,0.52-0.52h1.44c0.35,0,0.52,0.17,0.52,0.52v9.06
			c0,0.35-0.17,0.52-0.52,0.52H22.5c-0.18,0-0.39-0.13-0.62-0.39l-0.56-0.65c-0.03-0.05-0.09-0.07-0.18-0.07h-0.07
			c-0.09,0-0.15,0.02-0.18,0.07l-0.56,0.65c-0.01,0.01-0.03,0.04-0.07,0.07c-0.04,0.04-0.06,0.06-0.07,0.07
			c-0.01,0.01-0.03,0.03-0.07,0.06c-0.04,0.03-0.06,0.05-0.07,0.06s-0.04,0.02-0.07,0.04c-0.03,0.02-0.06,0.03-0.08,0.04
			c-0.02,0.01-0.05,0.02-0.09,0.02C19.77,22.93,19.74,22.94,19.71,22.94z M18.27,19.1l0.91,1.6h2.54v-3.19h-2.54L18.27,19.1z"/>
		<path class="st1" d="M31.98,24.14h-4.95c-0.35,0-0.52-0.17-0.52-0.52v-1.19c0-0.35,0.17-0.52,0.52-0.52H31v-4.43h-2.5l-0.56,1.05
			l0.95,1.78c0.09,0.16,0.1,0.3,0.04,0.43s-0.2,0.19-0.39,0.19h-1.57c-0.3,0-0.5-0.12-0.62-0.36l-0.86-1.69
			c-0.13-0.25-0.13-0.48,0-0.71l1.4-2.54c0.13-0.24,0.34-0.36,0.62-0.36h5.47c0.35,0,0.52,0.17,0.52,0.52v6.63
			c0,0.25-0.08,0.46-0.25,0.64l-0.62,0.68C32.37,24.01,32.16,24.14,31.98,24.14z"/>
	</g>
	<g>
		<g>
			<path class="st1" d="M9.17,26.95v-1.8c0-0.1,0.08-0.19,0.19-0.19h0.75c0.16,0,0.3,0.03,0.42,0.1s0.22,0.15,0.28,0.27
				c0.07,0.12,0.1,0.25,0.1,0.41c0,0.16-0.03,0.29-0.1,0.41c-0.07,0.11-0.17,0.2-0.29,0.26c-0.12,0.06-0.27,0.09-0.44,0.09H9.72
				c-0.1,0-0.19-0.08-0.19-0.19v-0.08c0-0.1,0.08-0.19,0.19-0.19h0.26c0.07,0,0.13-0.01,0.18-0.04c0.05-0.02,0.09-0.06,0.11-0.1
				c0.03-0.05,0.04-0.1,0.04-0.16c0-0.06-0.01-0.12-0.04-0.16c-0.03-0.04-0.06-0.08-0.11-0.1c-0.05-0.02-0.11-0.04-0.18-0.04H9.95
				c-0.1,0-0.19,0.08-0.19,0.19v1.33c0,0.1-0.08,0.19-0.19,0.19H9.36C9.26,27.13,9.17,27.05,9.17,26.95z"/>
		</g>
		<g>
			<path class="st1" d="M13.19,26.04c0,0.24-0.05,0.45-0.14,0.61c-0.09,0.17-0.22,0.29-0.38,0.38c-0.16,0.09-0.34,0.13-0.54,0.13
				c-0.2,0-0.38-0.04-0.54-0.13c-0.16-0.09-0.29-0.21-0.38-0.38c-0.09-0.17-0.14-0.37-0.14-0.61c0-0.24,0.05-0.45,0.14-0.61
				c0.09-0.17,0.22-0.29,0.38-0.38c0.16-0.09,0.34-0.13,0.54-0.13c0.2,0,0.38,0.04,0.54,0.13c0.16,0.09,0.29,0.21,0.38,0.38
				C13.14,25.6,13.19,25.8,13.19,26.04z M12.58,26.04c0-0.13-0.02-0.24-0.05-0.33c-0.03-0.09-0.09-0.16-0.15-0.2
				c-0.07-0.05-0.15-0.07-0.25-0.07c-0.1,0-0.18,0.02-0.25,0.07c-0.07,0.05-0.12,0.11-0.15,0.2c-0.03,0.09-0.05,0.2-0.05,0.33
				c0,0.13,0.02,0.24,0.05,0.33c0.03,0.09,0.09,0.16,0.15,0.2s0.15,0.07,0.25,0.07c0.1,0,0.18-0.02,0.25-0.07s0.12-0.11,0.15-0.2
				C12.56,26.29,12.58,26.18,12.58,26.04z"/>
		</g>
		<g>
			<path class="st1" d="M14.24,27.13h-0.65c-0.1,0-0.19-0.08-0.19-0.19v-1.8c0-0.1,0.08-0.19,0.19-0.19h0.64
				c0.22,0,0.42,0.04,0.58,0.13c0.16,0.09,0.29,0.21,0.38,0.37c0.09,0.16,0.13,0.36,0.13,0.58c0,0.23-0.04,0.42-0.13,0.58
				c-0.09,0.16-0.21,0.29-0.38,0.37C14.65,27.09,14.46,27.13,14.24,27.13z M13.99,26.44c0,0.1,0.08,0.19,0.19,0.19h0.04
				c0.11,0,0.2-0.02,0.28-0.05c0.08-0.03,0.13-0.09,0.17-0.18c0.04-0.08,0.06-0.2,0.06-0.36c0-0.15-0.02-0.27-0.06-0.36
				c-0.04-0.09-0.1-0.15-0.18-0.18c-0.08-0.03-0.17-0.05-0.29-0.05h-0.02c-0.1,0-0.19,0.08-0.19,0.19V26.44z"/>
		</g>
		<g>
			<path class="st1" d="M15.54,26.95v-1.8c0-0.1,0.08-0.19,0.19-0.19h1.2c0.1,0,0.19,0.08,0.19,0.19v0.1c0,0.1-0.08,0.19-0.19,0.19
				h-0.6c-0.1,0-0.19,0.08-0.19,0.19l0,0c0,0.1,0.08,0.19,0.19,0.19h0.52c0.1,0,0.19,0.08,0.19,0.19v0.1c0,0.1-0.08,0.19-0.19,0.19
				h-0.52c-0.1,0-0.19,0.08-0.19,0.19l0,0c0,0.1,0.08,0.19,0.19,0.19h0.6c0.1,0,0.19,0.08,0.19,0.19v0.1c0,0.1-0.08,0.19-0.19,0.19
				h-1.19C15.62,27.13,15.54,27.05,15.54,26.95z"/>
		</g>
		<g>
			<path class="st1" d="M18.71,27.13h-0.65c-0.1,0-0.19-0.08-0.19-0.19v-1.8c0-0.1,0.08-0.19,0.19-0.19h0.64
				c0.22,0,0.42,0.04,0.58,0.13c0.16,0.09,0.29,0.21,0.38,0.37c0.09,0.16,0.13,0.36,0.13,0.58c0,0.23-0.04,0.42-0.13,0.58
				c-0.09,0.16-0.21,0.29-0.38,0.37C19.13,27.09,18.93,27.13,18.71,27.13z M18.47,26.44c0,0.1,0.08,0.19,0.19,0.19h0.04
				c0.11,0,0.2-0.02,0.28-0.05c0.08-0.03,0.13-0.09,0.17-0.18c0.04-0.08,0.06-0.2,0.06-0.36c0-0.15-0.02-0.27-0.06-0.36
				c-0.04-0.09-0.1-0.15-0.18-0.18c-0.08-0.03-0.17-0.05-0.29-0.05h-0.02c-0.1,0-0.19,0.08-0.19,0.19V26.44z"/>
		</g>
		<g>
			<path class="st1" d="M20.3,27.13h-0.24c-0.13,0-0.22-0.12-0.18-0.25l0.6-1.8c0.03-0.08,0.1-0.13,0.18-0.13h0.54
				c0.08,0,0.15,0.05,0.18,0.13l0.6,1.8c0.04,0.12-0.05,0.25-0.18,0.25h-0.24c-0.08,0-0.16-0.05-0.18-0.13l-0.44-1.45h-0.02
				L20.48,27C20.46,27.08,20.38,27.13,20.3,27.13z M20.51,26.27h0.83c0.1,0,0.19,0.08,0.19,0.19v0.07c0,0.1-0.08,0.19-0.19,0.19
				h-0.83c-0.1,0-0.19-0.08-0.19-0.19v-0.07C20.32,26.36,20.4,26.27,20.51,26.27z"/>
		</g>
		<g>
			<path class="st1" d="M22.2,26.95v-1.8c0-0.1,0.08-0.19,0.19-0.19h0.75c0.16,0,0.3,0.03,0.42,0.09c0.12,0.06,0.22,0.14,0.28,0.25
				c0.07,0.11,0.1,0.24,0.1,0.4c0,0.16-0.03,0.29-0.1,0.39c-0.07,0.11-0.17,0.19-0.29,0.24c-0.12,0.05-0.27,0.08-0.44,0.08h-0.37
				c-0.1,0-0.19-0.08-0.19-0.19v-0.08c0-0.1,0.08-0.19,0.19-0.19H23c0.07,0,0.13-0.01,0.18-0.03c0.05-0.02,0.09-0.05,0.11-0.08
				c0.03-0.04,0.04-0.09,0.04-0.15c0-0.06-0.01-0.11-0.04-0.15c-0.03-0.04-0.06-0.07-0.11-0.09c-0.05-0.02-0.11-0.03-0.18-0.03
				h-0.02c-0.1,0-0.19,0.08-0.19,0.19v1.33c0,0.1-0.08,0.19-0.19,0.19h-0.22C22.28,27.13,22.2,27.05,22.2,26.95z M23.53,26.23
				l0.34,0.63c0.07,0.12-0.02,0.28-0.16,0.28h-0.21c-0.07,0-0.13-0.04-0.17-0.1l-0.33-0.63c-0.07-0.12,0.02-0.28,0.17-0.28h0.21
				C23.43,26.13,23.49,26.17,23.53,26.23z"/>
		</g>
		<g>
			<path class="st1" d="M26.21,25.67c-0.07,0-0.12-0.04-0.16-0.09c0,0,0-0.01-0.01-0.01c-0.02-0.03-0.04-0.05-0.07-0.07
				c-0.03-0.02-0.06-0.04-0.1-0.05c-0.04-0.01-0.08-0.02-0.13-0.02c-0.1,0-0.18,0.02-0.25,0.07c-0.07,0.05-0.12,0.12-0.16,0.21
				c-0.04,0.09-0.05,0.2-0.05,0.32c0,0.13,0.02,0.24,0.05,0.33c0.03,0.09,0.09,0.16,0.16,0.21c0.07,0.05,0.15,0.07,0.26,0.07
				c0.09,0,0.17-0.01,0.22-0.04s0.1-0.06,0.13-0.11c0.03-0.05,0.04-0.1,0.04-0.17l0.1,0.01h-0.31c-0.1,0-0.19-0.08-0.19-0.19V26.1
				c0-0.1,0.08-0.19,0.19-0.19h0.59c0.1,0,0.19,0.08,0.19,0.19v0.11c0,0.2-0.04,0.37-0.13,0.51c-0.08,0.14-0.2,0.25-0.35,0.32
				c-0.15,0.07-0.32,0.11-0.51,0.11c-0.21,0-0.4-0.05-0.56-0.14c-0.16-0.09-0.29-0.22-0.37-0.39c-0.09-0.17-0.13-0.36-0.13-0.59
				c0-0.18,0.03-0.34,0.08-0.48s0.13-0.26,0.23-0.35c0.1-0.1,0.21-0.17,0.34-0.22c0.13-0.05,0.27-0.07,0.41-0.07
				c0.13,0,0.25,0.02,0.36,0.05c0.11,0.04,0.21,0.09,0.29,0.16c0.09,0.07,0.15,0.15,0.21,0.24c0.01,0.01,0.01,0.02,0.01,0.03
				c0.06,0.12-0.03,0.27-0.17,0.27H26.21z"/>
		</g>
		<g>
			<path class="st1" d="M29.04,26.04c0,0.24-0.05,0.45-0.14,0.61c-0.09,0.17-0.22,0.29-0.38,0.38c-0.16,0.09-0.34,0.13-0.54,0.13
				c-0.2,0-0.38-0.04-0.54-0.13c-0.16-0.09-0.29-0.21-0.38-0.38c-0.09-0.17-0.14-0.37-0.14-0.61c0-0.24,0.05-0.45,0.14-0.61
				c0.09-0.17,0.22-0.29,0.38-0.38c0.16-0.09,0.34-0.13,0.54-0.13c0.2,0,0.38,0.04,0.54,0.13c0.16,0.09,0.29,0.21,0.38,0.38
				C28.99,25.6,29.04,25.8,29.04,26.04z M28.43,26.04c0-0.13-0.02-0.24-0.05-0.33c-0.03-0.09-0.09-0.16-0.15-0.2
				c-0.07-0.05-0.15-0.07-0.25-0.07c-0.1,0-0.18,0.02-0.25,0.07c-0.07,0.05-0.12,0.11-0.15,0.2c-0.03,0.09-0.05,0.2-0.05,0.33
				c0,0.13,0.02,0.24,0.05,0.33c0.03,0.09,0.09,0.16,0.15,0.2c0.07,0.05,0.15,0.07,0.25,0.07c0.1,0,0.18-0.02,0.25-0.07
				c0.07-0.05,0.12-0.11,0.15-0.2C28.41,26.29,28.43,26.18,28.43,26.04z"/>
		</g>
	</g>
</g>
</svg>
