<svg xmlns="http://www.w3.org/2000/svg" fill="#ffffff" enable-background="new 0 0 487.988 488"
	viewBox="0 0 487.988 488">
	<path
		d="M186.553 259.717l-68.607 37.036c1.857 2.224 3.311 4.834 4.189 7.763 1.708 5.695 1.067 11.697-1.803 16.902-2.87 5.203-7.604 8.947-13.331 10.541-21.725 6.045-60.218 17.39-73.935 25.448-1.913 1.124-3.769 2.385-5.563 3.737.55.278 1.111.539 1.684.775l48.056 19.88 175.46-94.718L186.553 259.717zM219.044 344.606c.001 0 .002-.001.003-.001l63.071-34.047c-3.763-5.142-8.191-10.765-13.235-16.783l-6.646-2.75-175.46 94.718 31.74 13.13 100.526-54.266C219.042 344.607 219.043 344.607 219.044 344.606z" />
	<path d="M104.856,324.252c3.639-1.013,6.647-3.392,8.471-6.697c1.824-3.308,2.23-7.122,1.145-10.742
		c-1.95-6.502-8.265-10.648-14.998-9.842L34.91,304.62c-0.044,0.006-0.089,0.012-0.133,0.016l-19.281,2.285
		c-2.194,0.256-4.183-1.308-4.443-3.502s1.308-4.183,3.501-4.443l17.043-2.019c4.157-9.69,21.281-48.065,36.232-59.049
		c11.293-8.295,41.95-11.878,65.68-13.423c2.984-0.194,5.682-1.563,7.597-3.855c1.913-2.289,2.78-5.182,2.442-8.147
		c-0.608-5.332-5.104-9.448-10.46-9.576c-34.91-0.835-62.04,1.69-74.438,6.917C47.227,214.639,25.899,231.616,0,256.493
		l0.428,121.832c6.316-8.817,16.287-20.591,28.586-27.816C42.789,342.417,77.861,331.764,104.856,324.252z" />
	<path
		d="M66.964 292.766l31.568-3.741c4.496-.531 8.862.344 12.641 2.293l65.845-35.545-31.739-13.13-74.137 40.021L66.964 292.766zM75.986 270.959l59.761-32.261-12.973-5.367c-23.895 2.126-41.181 5.683-48.724 10.063l7.653 6.466c1.329 1.123 1.78 2.977 1.115 4.585L75.986 270.959zM40.8 295.866l17.061-2.022 16.447-39.758-6.368-5.381C58.055 259.752 46.859 282.294 40.8 295.866zM246.692 350.318l36.026 45.628c6.148-16.115 15.945-45.675 13.91-58.897-.692-4.494-4.117-11.32-9.879-19.901l-48.993 26.448C241.169 344.988 244.268 347.248 246.692 350.318zM210.368 374.721c-2.613-4.619-3.443-9.891-2.423-15.032l-79.896 43.13 116.225 48.081c.575.238 1.158.45 1.747.643-.317-2.224-.745-4.427-1.306-6.577C240.7 429.571 221.472 394.348 210.368 374.721z" />
	<path
		d="M283.077 264.956c-3.88-3.694-9.971-3.956-14.167-.613-2.334 1.86-3.765 4.521-4.028 7.493-.263 2.975.679 5.85 2.653 8.095 15.703 17.857 34.87 42.052 37.001 55.901 2.822 18.337-12.171 57.596-16.074 67.388l10.635 13.47c1.369 1.733 1.073 4.249-.66 5.618-1.734 1.367-4.25 1.073-5.618-.661l-12.048-15.259c-.017-.021-.034-.042-.05-.063l-40.306-51.049c-4.206-5.328-11.594-6.853-17.569-3.63-3.325 1.796-5.732 4.783-6.777 8.411-1.045 3.628-.596 7.437 1.264 10.725 13.799 24.39 31.094 56.707 35.125 72.164 4.206 16.125 1.748 34.51-.383 45.055h76.105c6.087-21.713 9.672-36.793 10.385-43.707 2.051-19.868 1.773-98.655-7.69-121.853C325.791 309.982 308.369 289.03 283.077 264.956zM219.106 194.224l6.646 2.749 175.46-94.718-31.738-13.13-163.602 88.317C209.634 182.585 214.062 188.207 219.106 194.224zM301.435 228.283l68.607-37.036c-1.857-2.225-3.311-4.835-4.188-7.764-1.708-5.695-1.067-11.697 1.803-16.902 2.87-5.204 7.604-8.947 13.332-10.541 21.724-6.046 60.217-17.391 73.934-25.449 1.912-1.123 3.767-2.385 5.562-3.738-.55-.277-1.109-.538-1.681-.774L410.746 106.2l-175.46 94.718L301.435 228.283zM241.296 137.683L205.27 92.055c-6.149 16.115-15.945 45.675-13.91 58.897.692 4.494 4.117 11.32 9.878 19.901l48.994-26.449C246.82 143.011 243.721 140.753 241.296 137.683zM277.621 113.279c2.613 4.619 3.443 9.891 2.423 15.031l79.895-43.129L243.714 37.101c-.575-.238-1.158-.45-1.747-.643.317 2.224.745 4.427 1.306 6.578C247.289 58.43 266.517 93.653 277.621 113.279zM412.002 217.042l-59.76 32.26 12.974 5.367c23.895-2.126 41.181-5.683 48.724-10.064l-7.654-6.467c-1.329-1.123-1.78-2.977-1.115-4.584L412.002 217.042zM447.188 192.134l-17.061 2.022-16.447 39.757 6.368 5.381C429.934 228.248 441.129 205.706 447.188 192.134z" />
	<path
		d="M204.912 223.044c3.88 3.693 9.971 3.956 14.167.612 2.334-1.86 3.765-4.521 4.028-7.492.264-2.975-.679-5.85-2.653-8.095-15.703-17.858-34.87-42.052-37.001-55.901-2.822-18.336 12.17-57.593 16.074-67.388l-10.635-13.47c-1.369-1.734-1.073-4.25.66-5.618 1.734-1.37 4.25-1.074 5.618.66l12.029 15.235c.03.037.06.075.089.113l40.287 51.024c4.206 5.327 11.593 6.854 17.569 3.629 3.325-1.795 5.732-4.782 6.777-8.411 1.045-3.628.597-7.437-1.264-10.725-13.798-24.389-31.093-56.706-35.125-72.164-4.206-16.125-1.748-34.51.383-45.055h-76.104c-6.087 21.71-9.672 36.79-10.386 43.706-2.051 19.869-1.773 98.656 7.69 121.854C162.198 178.017 179.619 198.97 204.912 223.044zM421.024 195.234l-31.568 3.741c-4.495.535-8.862-.34-12.643-2.291l-65.843 35.544 31.739 13.13 74.136-40.021L421.024 195.234z" />
	<path d="M487.56,109.675c-6.316,8.817-16.287,20.59-28.586,27.815c-13.774,8.092-48.846,18.746-75.841,26.258
		c-3.639,1.013-6.647,3.391-8.471,6.697c-1.824,3.307-2.23,7.121-1.145,10.741c1.95,6.503,8.265,10.643,14.998,9.844l64.559-7.649
		c0.048-0.007,0.097-0.013,0.145-0.018l19.275-2.284c2.195-0.261,4.183,1.308,4.443,3.501c0.26,2.194-1.308,4.183-3.501,4.443
		l-17.043,2.02c-4.157,9.69-21.281,48.065-36.232,59.048c-11.293,8.296-41.95,11.878-65.68,13.422
		c-2.983,0.194-5.681,1.563-7.597,3.855c-1.913,2.289-2.78,5.184-2.442,8.148c0.608,5.331,5.104,9.448,10.46,9.575
		c34.908,0.832,62.04-1.69,74.438-6.916c11.423-4.815,32.752-21.794,58.649-46.669L487.56,109.675z" />
</svg>