<svg width="22" height="22" viewBox="0 0 22 22" fill="none" xmlns="http://www.w3.org/2000/svg">
<path d="M7.99084 8C10.2 8 11.9908 6.20914 11.9908 4C11.9908 1.79086 10.2 0 7.99084 0C5.78171 0 3.99084 1.79086 3.99084 4C3.99084 6.20914 5.78171 8 7.99084 8Z" fill="white"/>
<path d="M12.9908 11.64C12.9597 11.4793 12.8897 11.3288 12.7868 11.2015C12.6839 11.0742 12.5514 10.9741 12.4008 10.91C10.8223 10.2472 9.11511 9.94709 7.40514 10.0319C5.69518 10.1167 4.02606 10.5842 2.52084 11.4C2.05915 11.6616 1.67513 12.0411 1.40795 12.4996C1.14077 12.9581 1 13.4793 1 14.01C1 14.5407 1.14077 15.0619 1.40795 15.5204C1.67513 15.9789 2.05915 16.3583 2.52084 16.62C4.06062 17.4521 5.77172 17.9175 7.52084 17.98C7.71997 17.981 7.91487 17.9225 8.08055 17.8121C8.24624 17.7016 8.37518 17.5442 8.45084 17.36C8.69706 16.7375 9.06412 16.1699 9.53084 15.69L12.6808 12.54C12.8032 12.4276 12.8957 12.2864 12.9498 12.1292C13.0039 11.9721 13.018 11.804 12.9908 11.64ZM10.9908 17.11C10.4847 17.616 10.1761 18.2864 10.1208 19L9.99084 20.93C9.98163 21.074 10.0037 21.2182 10.0555 21.3528C10.1072 21.4875 10.1875 21.6093 10.2908 21.71C10.4771 21.8947 10.7285 21.9989 10.9908 22H11.0608L12.9608 21.87C13.685 21.8218 14.3672 21.5127 14.8808 21L17.8808 18L13.9908 14.14L10.9908 17.11ZM20.1908 11.81C19.6665 11.3105 18.97 11.0319 18.2458 11.0319C17.5217 11.0319 16.8252 11.3105 16.3008 11.81L15.3808 12.73L19.2608 16.62L20.1908 15.7C20.7044 15.1829 20.9926 14.4838 20.9926 13.755C20.9926 13.0262 20.7044 12.327 20.1908 11.81Z" fill="white"/>
</svg>
