<svg width="65" height="65" viewBox="0 0 65 65" fill="none" xmlns="http://www.w3.org/2000/svg">
<path d="M58.42 25.19C57.23 22.37 56.66 20.95 55.42 18.19L58 12.77L51.19 6L45.84 8.57C43.05 7.38 41.63 6.81 38.84 5.62L36.82 0H27.18L25.18 5.58C22.35 6.77 20.93 7.34 18.18 8.53L12.81 6L6 12.77L8.57 18.16C7.38 20.95 6.81 22.37 5.62 25.16L0 27.18V36.82L5.58 38.82C6.77 41.65 7.34 43.07 8.53 45.82L6 51.19C9.41 54.63 9.41 54.63 12.85 58.04L18.2 55.47C20.99 56.66 22.41 57.23 25.2 58.47L27.2 64.05H36.84L38.84 58.47C41.66 57.28 43.08 56.71 45.84 55.47L51.19 58C54.63 54.59 54.63 54.59 58.04 51.15L55.47 45.8C56.66 43.01 57.23 41.59 58.47 38.8L64.05 36.8V27.18L58.42 25.19ZM32 49.27C28.5819 49.27 25.2406 48.2563 22.3987 46.3571C19.5568 44.4579 17.342 41.7585 16.0344 38.6005C14.7268 35.4424 14.3852 31.9674 15.0528 28.6152C15.7203 25.2629 17.3671 22.1839 19.7847 19.7677C22.2024 17.3514 25.2823 15.7064 28.635 15.0408C31.9876 14.3752 35.4624 14.7188 38.6197 16.0282C41.777 17.3377 44.4751 19.554 46.3727 22.397C48.2702 25.24 49.282 28.5819 49.28 32C49.2773 36.5812 47.4556 40.9739 44.2153 44.2123C40.9749 47.4508 36.5812 49.27 32 49.27Z" fill="white"/>
<path d="M43.22 38.63C41.9482 40.4214 40.266 41.8822 38.314 42.8903C36.362 43.8984 34.197 44.4245 32 44.4245C29.8031 44.4245 27.6381 43.8984 25.6861 42.8903C23.7341 41.8822 22.0518 40.4214 20.78 38.63C21.7476 35.6766 23.8431 33.2253 26.61 31.81C28.1921 32.9103 30.073 33.5 32 33.5C33.9256 33.5008 35.8045 32.9071 37.38 31.8C40.1548 33.2129 42.2552 35.6695 43.22 38.63ZM37.28 24.85C37.282 25.8947 36.974 26.9165 36.3951 27.7861C35.8161 28.6557 34.9922 29.334 34.0275 29.7352C33.0629 30.1364 32.001 30.2424 30.9761 30.0398C29.9512 29.8372 29.0095 29.3351 28.2701 28.5971C27.5306 27.859 27.0268 26.9182 26.8222 25.8938C26.6177 24.8693 26.7217 23.8071 27.121 22.8417C27.5203 21.8764 28.1971 21.0512 29.0656 20.4705C29.9341 19.8899 30.9553 19.58 32 19.58C32.6929 19.5787 33.3793 19.714 34.0198 19.9783C34.6604 20.2425 35.2425 20.6305 35.7329 21.12C36.2234 21.6095 36.6125 22.1909 36.8779 22.8309C37.1434 23.471 37.28 24.1571 37.28 24.85Z" fill="white"/>
</svg>
