<svg xmlns="http://www.w3.org/2000/svg" fill="#ffffff" viewBox="0 0 1024 1024">
    <circle cx="350.8" cy="324.4" r="176.4" />
    <path
        d="M517.1 324.4c-.3 68.7-43.8 132.5-108.8 156.2-33 12-69.3 13.5-103.2 3.9-32.6-9.2-61.5-28.5-83.1-54.5-44.6-53.7-49.7-132.4-13.7-191.8 35.9-59.3 107.3-90.9 175.4-76.9 68 14 120.8 69.7 131.5 138.1 1.4 8.2 1.9 16.6 1.9 25 .1 12.9 20.1 12.9 20 0-.2-38.4-11.9-76.6-34.4-107.8-22.1-30.8-52.8-54.3-88.4-67.4-72.9-26.8-158.1-3.5-207.2 56.5-24.4 29.9-39.2 66.2-42.2 104.7-3 38.3 6.3 77.5 26.2 110.3 19.2 31.7 48.1 57.8 81.9 73.1 35.9 16.2 76 20.9 114.7 13.2 74.9-14.8 135.4-77.6 146.9-153 1.5-9.8 2.4-19.7 2.4-29.6.2-12.9-19.8-12.9-19.9 0z" />
    <circle cx="749.7" cy="389.9" r="131.7" />
    <path
        d="M871.4 389.9c-.3 50.2-32 97-79.6 114.2-48.5 17.5-103 2.6-136.1-36.9-32.7-39.1-36.5-96.8-10.2-140.3 26-43.1 78-66.5 127.6-56.5 50 10 88.7 50.5 96.9 100.8 1.1 6.2 1.4 12.5 1.4 18.7.1 12.9 20.1 12.9 20 0-.3-59.4-37.9-112.8-93.6-133.3-55.1-20.2-119.8-2.6-157 42.8-37.7 46-43.4 112.3-12.5 163.5s91.7 77.5 150.1 65.7c56.5-11.3 102.4-59 111.1-116.1 1.1-7.5 1.8-15.1 1.9-22.7.1-12.8-19.9-12.8-20 .1zM653 762.5v72.1c0 22.9-19 41.4-41.9 41.4H90.4C67.5 876 49 857.5 49 834.6v-72.1C49 651.4 139.1 561 250.2 561h201.2c45.8 0 88.2 15.4 122.1 41.2C621.6 639 653 697.1 653 762.5z" />
    <path
        d="M642.5 762.5v65.7c0 3 .2 6.1-.1 9.2-.7 8.4-5 16.3-11.5 21.7-6.1 5-13.6 7-21.4 7-28.3.1-56.6 0-84.9 0H90.4c-15.6-.2-29.2-11.6-31.3-27.3-1.2-8.8-.2-18.3-.2-27.1v-40.9c0-12.1.1-24.1 1.9-36.1 2.9-19 8.5-37.8 16.9-55.1 16.7-34.2 43.2-63.1 76-82.3 29.5-17.3 63.1-26 97.2-26H447.2c36.6 0 71.9 8.7 103.3 27.9 37 22.5 66.1 57.9 80.6 98.8 7.7 20.7 11.3 42.4 11.4 64.5.1 12.9 20.1 12.9 20 0-.2-48-16.5-94.2-46.3-131.8-30.1-38.1-74.1-65.2-121.7-74.9-22.6-4.6-45.1-4.5-67.9-4.5h-159c-22.9 0-45.6.6-68.1 6.1C118.9 577 54.9 645.8 41.8 728c-4.3 26.9-2.9 54.6-2.9 81.8 0 9.6-.7 19.4.2 29 2 22.1 18.3 41.7 40.4 46.1 9 1.8 18.5 1.2 27.6 1.2h503.2c14.4-.1 28.6-5.7 38.4-16.5 10.7-11.7 13.7-25.8 13.7-41.1v-66c.1-12.9-19.9-12.9-19.9 0zM975 709.9v67.6c0 12.7-9.7 23.5-22.1 24.5H699v-45.3c0-72.4-33.5-137-85.8-179.1 16.8-6.9 35.1-10.6 54.4-10.6h164.3c79 0 143.1 63.9 143.1 142.9z" />
    <path
        d="M965 709.9c0 22.4.7 45 0 67.5-.3 8.8-6.9 14.3-15.3 14.3H698.9l10 10c0-21.5 1-43.4-.9-64.8-3.6-41.6-17.7-82.2-41.7-116.5-13-18.7-28.5-35.5-46.2-49.9-1.5 5.6-2.9 11.1-4.4 16.7 17-6.9 34.7-10.3 53-10.3h160c30.2 0 59.1 8.6 83.4 26.9 33.3 24.8 52.7 64.7 52.9 106.1.1 12.9 20.1 12.9 20 0-.2-41.3-16.9-81.4-46.7-110.1-28.5-27.5-66.9-42.9-106.5-43-44.8-.2-89.7 0-134.5 0h-27.2c-20.4 0-40.5 3.4-59.5 11-6.2 2.5-10.9 11.4-4.4 16.7 29.7 24.1 53.6 55.4 67.5 91.2 7.1 18.3 12.1 37.6 14.1 57.2 1.3 12.2 1.2 24.4 1.2 36.7v32.1c0 5.4 4.6 10 10 10h249.8c12.8 0 24.8-5.4 31.5-16.8 6.7-11.4 4.7-26.6 4.7-39.4V710c0-13-20-13-20-.1z" />
</svg>