<svg width="24" height="24" viewBox="0 0 24 24" fill="none" xmlns="http://www.w3.org/2000/svg">
    <path
        d="M7 11C7.55228 11 8 10.5523 8 10C8 9.44772 7.55228 9 7 9C6.44772 9 6 9.44772 6 10C6 10.5523 6.44772 11 7 11Z"
        fill="#ffffff" />
    <path
        d="M17 3H7C5.14349 3 3.36301 3.7375 2.05026 5.05025C0.7375 6.36301 2.52786e-06 8.14348 2.52786e-06 10V16C-0.00124362 17.24 0.458283 18.4361 1.28938 19.3563C2.12047 20.2765 3.26383 20.8551 4.49751 20.9797C5.73118 21.1043 6.96715 20.7661 7.96548 20.0307C8.9638 19.2953 9.65326 18.2152 9.9 17H14.1C14.3467 18.2152 15.0362 19.2953 16.0345 20.0307C17.0329 20.7661 18.2688 21.1043 19.5025 20.9797C20.7362 20.8551 21.8795 20.2765 22.7106 19.3563C23.5417 18.4361 24.0012 17.24 24 16V10C24 8.14348 23.2625 6.36301 21.9497 5.05025C20.637 3.7375 18.8565 3 17 3ZM17 7C17.1978 7 17.3911 7.05865 17.5556 7.16853C17.72 7.27841 17.8482 7.43459 17.9239 7.61732C17.9996 7.80004 18.0194 8.00111 17.9808 8.19509C17.9422 8.38907 17.847 8.56725 17.7071 8.70711C17.5673 8.84696 17.3891 8.9422 17.1951 8.98079C17.0011 9.01937 16.8 8.99957 16.6173 8.92388C16.4346 8.84819 16.2784 8.72002 16.1685 8.55557C16.0587 8.39112 16 8.19778 16 8C16 7.73478 16.1054 7.48043 16.2929 7.29289C16.4804 7.10536 16.7348 7 17 7ZM7 13C6.40666 13 5.82664 12.8241 5.33329 12.4944C4.83994 12.1648 4.45543 11.6962 4.22836 11.1481C4.0013 10.5999 3.94189 9.99667 4.05765 9.41473C4.1734 8.83279 4.45912 8.29824 4.87868 7.87868C5.29824 7.45912 5.83279 7.1734 6.41473 7.05764C6.99667 6.94189 7.59987 7.0013 8.14805 7.22836C8.69623 7.45542 9.16477 7.83994 9.49441 8.33329C9.82406 8.82664 10 9.40666 10 10C10 10.7956 9.68393 11.5587 9.12132 12.1213C8.55871 12.6839 7.79565 13 7 13ZM15 11C14.8022 11 14.6089 10.9414 14.4444 10.8315C14.28 10.7216 14.1518 10.5654 14.0761 10.3827C14.0004 10.2 13.9806 9.99889 14.0192 9.80491C14.0578 9.61093 14.153 9.43275 14.2929 9.29289C14.4327 9.15304 14.6109 9.0578 14.8049 9.01921C14.9989 8.98063 15.2 9.00043 15.3827 9.07612C15.5654 9.15181 15.7216 9.27998 15.8315 9.44443C15.9414 9.60888 16 9.80222 16 10C16 10.2652 15.8946 10.5196 15.7071 10.7071C15.5196 10.8946 15.2652 11 15 11ZM17 13C16.8022 13 16.6089 12.9414 16.4444 12.8315C16.28 12.7216 16.1518 12.5654 16.0761 12.3827C16.0004 12.2 15.9806 11.9989 16.0192 11.8049C16.0578 11.6109 16.153 11.4327 16.2929 11.2929C16.4327 11.153 16.6109 11.0578 16.8049 11.0192C16.9989 10.9806 17.2 11.0004 17.3827 11.0761C17.5654 11.1518 17.7216 11.28 17.8315 11.4444C17.9414 11.6089 18 11.8022 18 12C18 12.2652 17.8946 12.5196 17.7071 12.7071C17.5196 12.8946 17.2652 13 17 13ZM19 11C18.8022 11 18.6089 10.9414 18.4444 10.8315C18.28 10.7216 18.1518 10.5654 18.0761 10.3827C18.0004 10.2 17.9806 9.99889 18.0192 9.80491C18.0578 9.61093 18.153 9.43275 18.2929 9.29289C18.4327 9.15304 18.6109 9.0578 18.8049 9.01921C18.9989 8.98063 19.2 9.00043 19.3827 9.07612C19.5654 9.15181 19.7216 9.27998 19.8315 9.44443C19.9414 9.60888 20 9.80222 20 10C20 10.2652 19.8946 10.5196 19.7071 10.7071C19.5196 10.8946 19.2652 11 19 11Z"
        fill="#ffffff" />
</svg>