<svg xmlns="http://www.w3.org/2000/svg" fill="#ffffff" enable-background="new 0 0 60 60" viewBox="0 0 60 60">
	<path d="M35.4500122,18.1099854l-10-5c-0.3099976-0.1499634-0.6799927-0.1399536-0.9800415,0.0400391
	C24.1799927,13.3400269,24,13.6600342,24,14v10c0,0.3499756,0.1799927,0.6699829,0.4699707,0.8499756
	C24.6300049,24.9500122,24.8200073,25,25,25c0.1500244,0,0.3099976-0.0299683,0.4500122-0.0999756l10-5
	C35.789978,19.7299805,36,19.3800049,36,19S35.789978,18.2800293,35.4500122,18.1099854z" />
	<path d="M49,6H11c-2.7600098,0-5,2.25-5,5v38.039978C6,51.7700195,8.2399902,54,11,54h38c2.7600098,0,5-2.2299805,5-4.960022V11
	C54,8.25,51.7600098,6,49,6z M14,42.9199829c0,0.5500488-0.4500122,1-1,1s-1-0.4499512-1-1v-2c0-0.5599976,0.4500122-1,1-1
	s1,0.4400024,1,1V42.9199829z M19,47.9199829h-2c-0.5499878,0-1-0.4499512-1-1c0-0.5599976,0.4500122-1,1-1h2
	c0.5499878,0,1,0.4400024,1,1C20,47.4700317,19.5499878,47.9199829,19,47.9199829z M19,37.9199829h-2c-0.5499878,0-1-0.4499512-1-1
	c0-0.5599976,0.4500122-1,1-1h2c0.5499878,0,1,0.4400024,1,1C20,37.4700317,19.5499878,37.9199829,19,37.9199829z M24,42.9199829
	c0,0.5500488-0.4500122,1-1,1s-1-0.4499512-1-1v-2c0-0.5599976,0.4500122-1,1-1s1,0.4400024,1,1V42.9199829z M48,42.9199829h-5v5
	c0,0.5500488-0.4500122,1-1,1s-1-0.4499512-1-1v-5h-5c-0.5499878,0-1-0.4499512-1-1c0-0.5599976,0.4500122-1,1-1h5v-5
	c0-0.5599976,0.4500122-1,1-1s1,0.4400024,1,1v5h5c0.5499878,0,1,0.4400024,1,1C49,42.4700317,48.5499878,42.9199829,48,42.9199829z
	 M52,30H8V11c0-1.6500244,1.3499756-3,3-3h38c1.6500244,0,3,1.3499756,3,3V30z" />
</svg>