<svg width="64" height="64" viewBox="0 0 64 64" fill="none" xmlns="http://www.w3.org/2000/svg">
<path d="M8.07001 19.745C8.06735 18.1024 8.71665 16.5258 9.87533 15.3615C11.034 14.1972 12.6074 13.5403 14.25 13.535C15.898 13.5589 17.4694 14.235 18.62 15.415C19.1944 15.9916 19.6485 16.6766 19.9558 17.4303C20.2631 18.1839 20.4175 18.9911 20.41 19.805C20.3994 21.444 19.7381 23.0117 18.5716 24.1632C17.4052 25.3147 15.829 25.9556 14.19 25.945C12.551 25.9344 10.9833 25.2731 9.8318 24.1066C8.68033 22.9402 8.0394 21.364 8.05001 19.725L8.07001 19.745ZM38.2 18.255C37.5746 18.2841 36.9497 18.186 36.3632 17.9667C35.7768 17.7474 35.2409 17.4114 34.7879 16.9791C34.335 16.5468 33.9745 16.0271 33.7282 15.4514C33.4819 14.8758 33.3549 14.2561 33.3549 13.63C33.3549 13.0039 33.4819 12.3842 33.7282 11.8086C33.9745 11.2329 34.335 10.7132 34.7879 10.2809C35.2409 9.84857 35.7768 9.51259 36.3632 9.29329C36.9497 9.07398 37.5746 8.97591 38.2 9.005C39.4291 9.02854 40.6001 9.53272 41.4619 10.4094C42.3237 11.2862 42.8076 12.4657 42.81 13.695C42.7837 14.9093 42.2893 16.0665 41.43 16.925C40.5689 17.774 39.4092 18.2515 38.2 18.255ZM64 41.585C64.0007 41.7612 63.9548 41.9345 63.867 42.0873C63.7792 42.24 63.6526 42.3669 63.5 42.455C59.3436 44.9647 54.5948 46.3245 49.74 46.395C49.16 46.395 48.57 46.395 47.99 46.335C47.482 43.5655 46.2641 40.9753 44.4551 38.8176C42.6462 36.6598 40.3083 35.0085 37.67 34.025C39.311 31.4024 41.761 29.3851 44.6497 28.2778C47.5385 27.1706 50.7091 27.0335 53.6826 27.8872C56.6562 28.741 59.2711 30.5393 61.1324 33.0104C62.9937 35.4816 64.0003 38.4913 64 41.585ZM29.07 10.415C29.7962 11.1751 30.2374 12.1628 30.3191 13.2109C30.4007 14.259 30.1177 15.303 29.518 16.1664C28.9182 17.0298 28.0386 17.6595 27.028 17.9488C26.0173 18.2382 24.9377 18.1695 23.9719 17.7543C23.0062 17.3391 22.2135 16.603 21.7281 15.6705C21.2427 14.738 21.0943 13.6665 21.3082 12.6372C21.5221 11.608 22.085 10.6842 22.9017 10.0223C23.7184 9.36043 24.7388 9.00104 25.79 9.005C26.4034 9.00788 27.0099 9.1342 27.5734 9.37645C28.1369 9.61869 28.6459 9.97189 29.07 10.415ZM26.34 34.025C23.7001 35.0091 21.36 36.6602 19.548 38.8175C17.7359 40.9749 16.5135 43.5648 16 46.335C15.42 46.335 14.83 46.395 14.25 46.395C9.39796 46.327 4.65172 44.967 0.500008 42.455C0.347404 42.3669 0.220789 42.24 0.132986 42.0873C0.0451828 41.9345 -0.000691685 41.7612 7.88288e-06 41.585C0.0092047 38.7702 0.851232 36.0211 2.42001 33.684C3.98879 31.3469 6.21415 29.5264 8.81573 28.4517C11.4173 27.3771 14.2787 27.0965 17.0396 27.6451C19.8004 28.1938 22.337 29.5473 24.33 31.535C25.0948 32.2838 25.7694 33.1195 26.34 34.025Z" fill="white"/>
<path d="M43.56 19.745C43.5574 18.1024 44.2066 16.5259 45.3653 15.3615C46.524 14.1972 48.0974 13.5403 49.74 13.535C50.9638 13.537 52.1596 13.9017 53.1763 14.5831C54.1929 15.2644 54.9847 16.2319 55.4517 17.3631C55.9187 18.4944 56.0398 19.7386 55.7998 20.9387C55.5599 22.1388 54.9695 23.2408 54.1035 24.1055C53.2374 24.9702 52.1344 25.5588 50.9339 25.7968C49.7335 26.0348 48.4894 25.9117 47.3589 25.4429C46.2284 24.9741 45.2622 24.1807 44.5825 23.1629C43.9028 22.1452 43.54 20.9488 43.54 19.725L43.56 19.745ZM25.81 27.395C25.8153 25.7559 26.4695 24.1855 27.6295 23.0274C28.7895 21.8693 30.3609 21.2176 32 21.215C33.2238 21.219 34.419 21.5856 35.4346 22.2686C36.4501 22.9516 37.2403 23.9203 37.7055 25.0523C38.1706 26.1843 38.2898 27.4288 38.0479 28.6285C37.806 29.8282 37.2139 30.9293 36.3464 31.7925C35.4789 32.6558 34.375 33.2426 33.1741 33.4787C31.9733 33.7148 30.7294 33.5896 29.5997 33.119C28.4699 32.6484 27.5051 31.8534 26.827 30.8346C26.1489 29.8158 25.788 28.6188 25.79 27.395H25.81ZM46.25 49.255C46.2507 49.4312 46.2048 49.6045 46.117 49.7573C46.0292 49.91 45.9026 50.0369 45.75 50.125C41.5977 52.6357 36.8518 53.9956 32 54.065C27.1482 53.9956 22.4023 52.6357 18.25 50.125C18.0974 50.0369 17.9708 49.91 17.883 49.7573C17.7952 49.6045 17.7493 49.4312 17.75 49.255C17.8484 45.5397 19.3935 42.0096 22.0561 39.4166C24.7187 36.8236 28.2884 35.3726 32.005 35.3726C35.7216 35.3726 39.2914 36.8236 41.954 39.4166C44.6166 42.0096 46.1616 45.5397 46.26 49.255H46.25Z" fill="white"/>
</svg>
