<svg xmlns="http://www.w3.org/2000/svg" width="32" height="32">
    <path
        style="line-height:normal;-inkscape-font-specification:Sans;text-indent:0;text-align:start;text-decoration-line:none;text-transform:none;block-progression:tb;marker:none"
        fill="#fff"
        d="M-746.862 1102.11c-1.887-1.088-3.98-1.495-5.93-1.041-1.95.453-3.73 1.774-4.998 3.97-1.33 2.304-.947 5.381.034 8.752.981 3.371 2.607 7.077 3.949 10.724.082.21.319.346.541.312 3.828-.661 7.848-1.117 11.261-1.942 3.413-.825 6.28-2.002 7.624-4.33 1.282-2.22 1.499-4.42.912-6.33-.586-1.91-1.956-3.511-3.84-4.599-1.938-1.12-4.282-.842-6.212-.303-.497-1.93-1.407-4.096-3.341-5.212z"
        color="#000" font-family="Sans" font-weight="400" overflow="visible"
        transform="rotate(-30 -2415.165 -860.686)" />
</svg>