<svg width="44" height="44" viewBox="0 0 44 44" fill="none" xmlns="http://www.w3.org/2000/svg">
<path d="M36 19C35.45 19 35 18.55 35 18V15.5C35 13.57 36.57 12 38.5 12H40.5C41.33 12 42 11.33 42 10.5C42 9.67 41.33 9 40.5 9H30C29.45 9 29 8.55 29 8C29 7.45 29.45 7 30 7H40.5C42.43 7 44 8.57 44 10.5C44 12.43 42.43 14 40.5 14H38.5C37.67 14 37 14.67 37 15.5V18C37 18.55 36.55 19 36 19Z" fill="white"/>
<path d="M41 17H3C1.35 17 0 18.35 0 20V34C0 35.65 1.35 37 3 37H41C42.65 37 44 35.65 44 34V20C44 18.35 42.65 17 41 17Z" fill="white"/>
<path d="M32 34H13C12.45 34 12 33.55 12 33C12 32.45 12.45 32 13 32H32C32.55 32 33 32.45 33 33C33 33.55 32.55 34 32 34Z" fill="#EC7A08"/>
<path d="M6 34H4C3.45 34 3 33.55 3 33C3 32.45 3.45 32 4 32H6C6.55 32 7 32.45 7 33C7 33.55 6.55 34 6 34ZM10 34H9C8.45 34 8 33.55 8 33C8 32.45 8.45 32 9 32H10C10.55 32 11 32.45 11 33C11 33.55 10.55 34 10 34Z" fill="#A30000"/>
<path d="M36 34H35C34.45 34 34 33.55 34 33C34 32.45 34.45 32 35 32H36C36.55 32 37 32.45 37 33C37 33.55 36.55 34 36 34ZM34 31H33C32.45 31 32 30.55 32 30C32 29.45 32.45 29 33 29H34C34.55 29 35 29.45 35 30C35 30.55 34.55 31 34 31ZM30 31H29C28.45 31 28 30.55 28 30C28 29.45 28.45 29 29 29H30C30.55 29 31 29.45 31 30C31 30.55 30.55 31 30 31Z" fill="#3F9C35"/>
<path d="M26 31H25C24.45 31 24 30.55 24 30C24 29.45 24.45 29 25 29H26C26.55 29 27 29.45 27 30C27 30.55 26.55 31 26 31ZM22 31H21C20.45 31 20 30.55 20 30C20 29.45 20.45 29 21 29H22C22.55 29 23 29.45 23 30C23 30.55 22.55 31 22 31Z" fill="#F5C12E"/>
<path d="M18 31H17C16.45 31 16 30.55 16 30C16 29.45 16.45 29 17 29H18C18.55 29 19 29.45 19 30C19 30.55 18.55 31 18 31ZM14 31H13C12.45 31 12 30.55 12 30C12 29.45 12.45 29 13 29H14C14.55 29 15 29.45 15 30C15 30.55 14.55 31 14 31Z" fill="#EC7A08"/>
<path d="M10 31H9C8.45 31 8 30.55 8 30C8 29.45 8.45 29 9 29H10C10.55 29 11 29.45 11 30C11 30.55 10.55 31 10 31ZM6 31H4C3.45 31 3 30.55 3 30C3 29.45 3.45 29 4 29H6C6.55 29 7 29.45 7 30C7 30.55 6.55 31 6 31Z" fill="#A30000"/>
<path d="M40 34H39C38.45 34 38 33.55 38 33C38 32.45 38.45 32 39 32H40C40.55 32 41 32.45 41 33C41 33.55 40.55 34 40 34ZM40 31H37C36.45 31 36 30.55 36 30C36 29.45 36.45 29 37 29H40C40.55 29 41 29.45 41 30C41 30.55 40.55 31 40 31ZM35 28H34C33.45 28 33 27.55 33 27C33 26.45 33.45 26 34 26H35C35.55 26 36 26.45 36 27C36 27.55 35.55 28 35 28Z" fill="#007A87"/>
<path d="M31 28H30C29.45 28 29 27.55 29 27C29 26.45 29.45 26 30 26H31C31.55 26 32 26.45 32 27C32 27.55 31.55 28 31 28ZM27 28H26C25.45 28 25 27.55 25 27C25 26.45 25.45 26 26 26H27C27.55 26 28 26.45 28 27C28 27.55 27.55 28 27 28Z" fill="#3F9C35"/>
<path d="M23 28H22C21.45 28 21 27.55 21 27C21 26.45 21.45 26 22 26H23C23.55 26 24 26.45 24 27C24 27.55 23.55 28 23 28ZM19 28H18C17.45 28 17 27.55 17 27C17 26.45 17.45 26 18 26H19C19.55 26 20 26.45 20 27C20 27.55 19.55 28 19 28Z" fill="#F5C12E"/>
<path d="M15 28H14C13.45 28 13 27.55 13 27C13 26.45 13.45 26 14 26H15C15.55 26 16 26.45 16 27C16 27.55 15.55 28 15 28ZM11 28H10C9.45 28 9 27.55 9 27C9 26.45 9.45 26 10 26H11C11.55 26 12 26.45 12 27C12 27.55 11.55 28 11 28Z" fill="#EC7A08"/>
<path d="M7 28H4C3.45 28 3 27.55 3 27C3 26.45 3.45 26 4 26H7C7.55 26 8 26.45 8 27C8 27.55 7.55 28 7 28Z" fill="#A30000"/>
<path d="M40 28H38C37.45 28 37 27.55 37 27C37 26.45 37.45 26 38 26H40C40.55 26 41 26.45 41 27C41 27.55 40.55 28 40 28ZM36 25H35C34.45 25 34 24.55 34 24C34 23.45 34.45 23 35 23H36C36.55 23 37 23.45 37 24C37 24.55 36.55 25 36 25ZM32 25H31C30.45 25 30 24.55 30 24C30 23.45 30.45 23 31 23H32C32.55 23 33 23.45 33 24C33 24.55 32.55 25 32 25Z" fill="#007A87"/>
<path d="M28 25H27C26.45 25 26 24.55 26 24C26 23.45 26.45 23 27 23H28C28.55 23 29 23.45 29 24C29 24.55 28.55 25 28 25ZM24 25H23C22.45 25 22 24.55 22 24C22 23.45 22.45 23 23 23H24C24.55 23 25 23.45 25 24C25 24.55 24.55 25 24 25Z" fill="#3F9C35"/>
<path d="M20 25H19C18.45 25 18 24.55 18 24C18 23.45 18.45 23 19 23H20C20.55 23 21 23.45 21 24C21 24.55 20.55 25 20 25ZM16 25H15C14.45 25 14 24.55 14 24C14 23.45 14.45 23 15 23H16C16.55 23 17 23.45 17 24C17 24.55 16.55 25 16 25Z" fill="#F5C12E"/>
<path d="M12 25H11C10.45 25 10 24.55 10 24C10 23.45 10.45 23 11 23H12C12.55 23 13 23.45 13 24C13 24.55 12.55 25 12 25Z" fill="#EC7A08"/>
<path d="M4 25C3.87 25 3.74 24.97 3.62 24.92C3.49 24.87 3.39 24.8 3.29 24.71C3.25 24.66 3.2 24.61 3.17 24.55C3.13 24.5 3.1 24.44 3.08 24.38C3.05 24.32 3.03 24.26 3.02 24.2C3.01 24.13 3 24.06 3 24C3 23.74 3.11 23.48 3.29 23.29C3.67 22.92 4.33 22.92 4.71 23.29C4.75 23.34 4.79 23.39 4.83 23.44C4.87 23.5 4.9 23.56 4.92 23.62C4.95 23.68 4.97 23.74 4.98 23.8C4.99 23.87 5 23.94 5 24C5 24.06 4.99 24.13 4.98 24.2C4.97 24.26 4.95 24.32 4.92 24.38C4.9 24.44 4.87 24.5 4.83 24.55C4.79 24.61 4.75 24.66 4.71 24.71C4.52 24.89 4.26 25 4 25Z" fill="#A30000"/>
<path d="M40 25H39C38.45 25 38 24.55 38 24C38 23.45 38.45 23 39 23H40C40.55 23 41 23.45 41 24C41 24.55 40.55 25 40 25Z" fill="#007A87"/>
<path d="M8 25H7C6.45 25 6 24.55 6 24C6 23.45 6.45 23 7 23H8C8.55 23 9 23.45 9 24C9 24.55 8.55 25 8 25Z" fill="#EC7A08"/>
<path d="M5 22H4C3.45 22 3 21.55 3 21C3 20.45 3.45 20 4 20H5C5.55 20 6 20.45 6 21C6 21.55 5.55 22 5 22Z" fill="#A30000"/>
</svg>
