<svg xmlns="http://www.w3.org/2000/svg" viewBox="0 0 64 64"><path fill="#222" d="M61.76 15a1.5 1.5 0 0 0-1.53 0l-10.56 6.63v-5.34a5.12 5.12 0 0 0-5.11-5.12h-38a5.12 5.12 0 0 0-5.11 5.12v31.42a5.12 5.12 0 0 0 5.11 5.12h38a5.12 5.12 0 0 0 5.11-5.12v-5.34L60.23 49a1.5 1.5 0 0 0 2.3-1.27V16.26a1.5 1.5 0 0 0-.77-1.26ZM14.91 37.87H9.45A1.5 1.5 0 0 1 8 36.37v-8.74a1.5 1.5 0 0 1 3 0v7.24h4a1.5 1.5 0 1 1 0 3Zm6.54-1.5a1.5 1.5 0 0 1-3 0v-8.74a1.5 1.5 0 0 1 3 0Zm11.6-8.2-3.41 8.75a.31.31 0 0 1-.05.1.8.8 0 0 1-.08.16l-.05.06a.76.76 0 0 1-.11.14.47.47 0 0 1-.1.1l-.14.11h-.06a.8.8 0 0 1-.16.08l-.1.05h-.1a.63.63 0 0 1-.22.05h-.22a.82.82 0 0 1-.22 0 .8.8 0 0 1-.21-.05h-.1l-.1-.05-.14-.07-.14-.1a1.15 1.15 0 0 1-.32-.34 1.18 1.18 0 0 1-.11-.19.31.31 0 0 1-.05-.1l-3.41-8.75a1.5 1.5 0 0 1 2.8-1.09l2 5.16 2-5.16a1.5 1.5 0 1 1 2.79 1.09Zm7 2.33a1.5 1.5 0 0 1 0 3H38v1.37h3.66a1.5 1.5 0 0 1 0 3h-5.13a1.5 1.5 0 0 1-1.5-1.5v-8.74a1.5 1.5 0 0 1 1.5-1.5h5.16a1.5 1.5 0 0 1 0 3H38v1.37Z"/></svg>