<svg xmlns="http://www.w3.org/2000/svg" fill="#fff" width="19.996" height="19.229" viewBox="0 0 5.291 5.088">
    <path
        d="m 137.81641,2 2.75781,1.3808594 c 2.12542,1.0627084 3.47657,3.2413608 3.47656,5.6171875 v 8.9921871 c 1.62067,-0.02919 2.95313,-1.363262 2.95313,-2.990234 v -4.001953 h 1.58789 l -0.29688,0.296875 a 1.0000006,1.0000006 0 0 0 0,1.410156 1.0000006,1.0000006 0 0 0 1.41016,0 l 1.94726,-1.949219 A 1.0000006,1.0000006 0 0 0 152,10.001953 a 1.0000006,1.0000006 0 0 0 -0.33008,-0.7460936 1.0000006,1.0000006 0 0 0 -0.01,-0.00977 l -1.95508,-1.953125 a 1.0000006,1.0000006 0 0 0 -0.73828,-0.2949219 1.0000006,1.0000006 0 0 0 -0.67188,0.2949219 1.0000006,1.0000006 0 0 0 0,1.4179687 l 0.28711,0.2871094 h -1.57812 v -4 C 147.00391,3.3532254 145.64287,2.000043 143.99805,2 Z m -3.69727,0.7753906 c -1.11318,0.080935 -2.11523,1.0073138 -2.11523,2.2226563 v 9.7656251 c 0,1.747069 0.98229,3.353452 2.54492,4.134766 l 4.21679,2.103515 c 1.44938,0.724688 3.23243,-0.379549 3.23243,-2 V 8.9980469 c 0,-1.6024003 -0.90662,-3.0704959 -2.33985,-3.7871094 L 135.23633,2.9960938 C 134.87398,2.8149217 134.4902,2.7484124 134.11914,2.7753906 Z"
        color="#fff" font-family="sans-serif" font-weight="400" overflow="visible" paint-order="markers fill stroke"
        transform="matrix(.26458 0 0 .26458 -34.926 -.53)" white-space="normal"
        style="line-height:normal;font-variant-ligatures:normal;font-variant-position:normal;font-variant-caps:normal;font-variant-numeric:normal;font-variant-alternates:normal;font-variant-east-asian:normal;font-feature-settings:normal;font-variation-settings:normal;text-indent:0;text-align:start;text-decoration-line:none;text-decoration-style:solid;text-decoration-color:#fff;text-transform:none;text-orientation:mixed;shape-padding:0;shape-margin:0;inline-size:0;isolation:auto;mix-blend-mode:normal" />
</svg>