<svg xmlns="http://www.w3.org/2000/svg" fill="#ffffff" enable-background="new 0 0 128 128" viewBox="-10 -10 148 148">
    <path
        d="M118.5,1h-100c-4,0-7.5,2.9-8.3,6.8L3,43.8c-0.6,3.2,0.2,6.6,2.3,9.1c1.5,1.8,3.5,3.1,5.7,3.7V124c0,1.7,1.3,3,3,3h110c1.7,0,3-1.3,3-3V10V9.5C127,4.8,123.2,1,118.5,1z M49,118c0,1.7-1.3,3-3,3H24c-1.7,0-3-1.3-3-3V70c0-1.7,1.3-3,3-3h22c1.7,0,3,1.3,3,3V118z M110,98c0,1.7-1.3,3-3,3H67c-1.7,0-3-1.3-3-3V70c0-1.7,1.3-3,3-3h40c1.7,0,3,1.3,3,3V98z M110.2,7.8L103,43.8c-0.8,4.2-4.6,7.2-8.8,7.2H13.8c-1.5,0-2.9-0.7-3.9-1.8c-1-1.2-1.3-2.7-1-4.2l7.2-36c0.2-1.2,1.3-2,2.4-2h91.9C110.3,7.3,110.2,7.5,110.2,7.8z" />
    <path
        d="M23.3 47.4c.2 0 .4.1.6.1 1.4 0 2.7-1 2.9-2.4l6.1-30.4c.3-1.6-.7-3.2-2.4-3.5-1.6-.3-3.2.7-3.5 2.4L21 43.8C20.6 45.5 21.7 47 23.3 47.4zM44.3 47.4c.2 0 .4.1.6.1 1.4 0 2.7-1 2.9-2.4l6.1-30.4c.3-1.6-.7-3.2-2.4-3.5-1.6-.3-3.2.7-3.5 2.4L42 43.8C41.6 45.5 42.7 47 44.3 47.4zM65.3 47.4c.2 0 .4.1.6.1 1.4 0 2.7-1 2.9-2.4l6.1-30.4c.3-1.6-.7-3.2-2.4-3.5-1.6-.3-3.2.7-3.5 2.4L63 43.8C62.6 45.5 63.7 47 65.3 47.4zM86.3 47.4c.2 0 .4.1.6.1 1.4 0 2.7-1 2.9-2.4l6.1-30.4c.3-1.6-.7-3.2-2.4-3.5-1.6-.3-3.2.7-3.5 2.4L84 43.8C83.6 45.5 84.7 47 86.3 47.4z" />
</svg>