<svg xmlns="http://www.w3.org/2000/svg" fill="#ffffff" enable-background="new 0 0 25 25" viewBox="0 0 25 25">
	<path d="M23,2.5H2C1.17,2.5,0.5,3.17,0.5,4v14.59V21c0,0.83,0.67,1.5,1.5,1.5h15.71c0.01,0,0.02,0.01,0.04,0.01
		s0.02-0.01,0.04-0.01H23c0.83,0,1.5-0.67,1.5-1.5v-3.53V4C24.5,3.17,23.83,2.5,23,2.5z M21.5,15.34l-2.98-2.98
		c-0.59-0.59-1.54-0.59-2.12,0l-3.34,3.34l-3.34-3.34c-0.59-0.59-1.54-0.59-2.12,0l-4.1,4.1V5.5h18V15.34z" />
	<path
		d="M13.03,9.87c0.35,0.33,0.79,0.52,1.27,0.52s0.93-0.19,1.27-0.52c0.17-0.17,0.3-0.37,0.39-0.59
		c0.1-0.21,0.13-0.44,0.13-0.68c0-0.12-0.01-0.24-0.04-0.35c-0.02-0.12-0.05-0.23-0.1-0.33c-0.05-0.12-0.11-0.22-0.17-0.31
		c-0.06-0.11-0.14-0.19-0.23-0.27c-0.66-0.67-1.86-0.67-2.53,0c-0.08,0.08-0.16,0.17-0.21,0.27c-0.07,0.1-0.12,0.19-0.17,0.31
		c-0.05,0.11-0.08,0.21-0.11,0.33c-0.02,0.11-0.04,0.23-0.04,0.35c0,0.24,0.05,0.47,0.14,0.68C12.73,9.5,12.86,9.71,13.03,9.87z" />
</svg>