<svg xmlns="http://www.w3.org/2000/svg" viewBox="0 0 32 32">
    <path fill="#ffffff"
        d="M19.67 2.72h-7.34a3.002 3.002 0 0 0-3 3v20.56a3.002 3.002 0 0 0 3 3h7.34a3.002 3.002 0 0 0 3-3V5.72a3.002 3.002 0 0 0-3-3zM5.319 4.716H3a1 1 0 0 0 0 2h2.319a.89.89 0 0 1 .889.89v15.543a.89.89 0 0 1-.89.89H3a1 1 0 0 0 0 2h2.319a2.892 2.892 0 0 0 2.889-2.89V7.605a2.892 2.892 0 0 0-2.89-2.89zM29 24.039h-2.318a.891.891 0 0 1-.89-.89V7.605a.891.891 0 0 1 .89-.89H29a1 1 0 0 0 0-2h-2.318a2.892 2.892 0 0 0-2.89 2.89V23.15a2.892 2.892 0 0 0 2.89 2.89H29a1 1 0 0 0 0-2z" />
</svg>