<svg xmlns="http://www.w3.org/2000/svg" version="1.1" id="Layer_1" x="0" y="0" viewBox="0 0 100 100" xml:space="preserve"><style>.st0{fill:#231f20}</style><path d="M78.275 54.19c-1.11-.02-3.29-.28-5.39-1.79-1.92-1.38-2.86-3.17-3.27-4.2l-.14-10.17-.01-.14c-2-12.42-13-21.74-25.41-21.29-4.4.15-8.72 1.51-12.48 3.95-6.99 4.55-11.16 12.45-11.16 21.14v10.97c0 4.36 1.07 8.58 3.1 12.2 1.68 3 3.8 5.67 6.3 7.94 2.34 2.12 4.99 3.87 7.88 5.19 2.23 1.02 4.61 1.54 7.08 1.54 4.15 0 8.35-1.51 11.83-4.24.26-.2.52-.34.81-.43.52-.15 1.05-.06 1.7.09.93.2 2.17.34 3.34-.11 2.73-1.05 3.8-4.02 3.84-4.15.42-1.19.33-2.05.26-2.75-.07-.63-.12-1.13.16-1.91.4-1.07 1.21-2.05 2.31-2.77 1.04-.69 1.88-.76 2.84-.84.84-.07 1.79-.15 2.85-.65 2.04-.98 3.56-3.09 4.5-6.29l.37-1.26-1.31-.03zm-42.35-11.98c-3.13 0-5.68-2.55-5.68-5.68s2.55-5.68 5.68-5.68 5.67 2.55 5.67 5.68-2.54 5.68-5.67 5.68zm18.59 0c-3.13 0-5.68-2.55-5.68-5.68s2.55-5.68 5.68-5.68 5.68 2.55 5.68 5.68-2.55 5.68-5.68 5.68z" fill="#3C93C9" style="fill:#3c93c9"/></svg>