<svg xmlns="http://www.w3.org/2000/svg" width="32" height="32"><path fill="#607D8B" d="m25.769 29.417.225-7.779-1.521-3.134a5.001 5.001 0 0 0-3.112-2.621l-3.031-.875-.271-2.469h-4.117l-.272 2.471-3.063.883a5.001 5.001 0 0 0-3.087 2.568l-3.66 7.321c-.853 1.706.391 3.711 2.298 3.706l19.611-.071z"/><path fill="#78909C" d="M18 29.5c0-7.752-2.188-9.248-6.059-12.461l-1.334-1.146a5.001 5.001 0 0 0-3.087 2.568l-3.66 7.321c-.853 1.706.391 3.711 2.298 3.706L18 29.5z"/><path fill="#607D8B" d="M22.5 13.5c0 2.01-4.531 6-6.5 6s-6.5-4-6.5-6C9.5 12.083 11.858 5 16 5s6.5 7.042 6.5 8.5z"/><path fill="#E6CAA0" d="M18.621 6.955c-.607-.608-1.489-.916-2.621-.916s-2.014.308-2.621.916c-1 1.001-1.082 2.088-1.081 3.114.01 5.26 2.122 6.47 3.701 6.47s3.691-1.209 3.701-6.47c.003-1.026-.079-2.112-1.079-3.114z"/><path fill="#FFE0B2" d="M15.727 16.525c.833-.918 1.469-2.578 1.474-5.456.001-1.026-.08-2.113-1.081-3.115-.606-.607-1.488-.916-2.621-.916-.073 0-.136.012-.208.015-.911.974-.995 2.022-.994 3.015.011 4.964 1.891 6.32 3.43 6.457z"/><path fill="#78909C" d="M16 11.5c2.108 0 6.5 1.208 6.5 2-.45-4-3.541-8.416-6.5-9-2.958.583-6 5.083-6.5 9 0-.712 4.392-2 6.5-2z"/><path fill="#CFD8DC" d="M27.182 30H13.873L17.2 20h13.309z"/><g fill="#455A64"><path d="M25.001 20.001a.5.5 0 0 1-.448-.276l-.521-1.041a4.512 4.512 0 0 0-2.777-2.311.501.501 0 0 1-.342-.619.503.503 0 0 1 .619-.342 5.517 5.517 0 0 1 3.395 2.825l.521 1.041a.5.5 0 0 1-.447.723zM14.5 30H6.144a3.042 3.042 0 0 1-2.604-1.452 3.04 3.04 0 0 1-.134-2.978l3.667-7.333a5.517 5.517 0 0 1 3.396-2.825.5.5 0 1 1 .277.961 4.515 4.515 0 0 0-2.779 2.312L4.3 26.018a2.048 2.048 0 0 0 .09 2.005A2.05 2.05 0 0 0 6.144 29H14.5a.5.5 0 0 1 0 1z"/><path d="M12.5 27h-5a.5.5 0 0 1-.439-.74l3-5.5a.5.5 0 1 1 .878.478L8.342 26H12.5a.5.5 0 0 1 0 1zm18 3h-29a.5.5 0 0 1 0-1h29a.5.5 0 0 1 0 1zM19.625 18.073a.5.5 0 0 1-.324-.882C20.89 15.844 22 14.326 22 13.5a.5.5 0 0 1 1 0c0 1.375-1.577 3.203-3.053 4.454a.492.492 0 0 1-.322.119zm-7.267-.018a.502.502 0 0 1-.324-.119C10.567 16.687 9 14.866 9 13.5a.5.5 0 0 1 1 0c0 .819 1.103 2.33 2.683 3.674a.501.501 0 0 1-.325.881zM16 17.039c-1.007 0-3.416-.459-4.047-4.716a.5.5 0 0 1 .989-.147c.498 3.36 2.13 3.862 3.058 3.862.951 0 2.616-.524 3.082-4.031a.5.5 0 0 1 .992.132c-.588 4.423-3.045 4.9-4.074 4.9z"/><path d="M9.5 14a.502.502 0 0 1-.497-.564c.499-3.907 3.556-8.769 6.9-9.427a.482.482 0 0 1 .193 0c3.115.616 6.393 5.085 6.895 9.393a.5.5 0 0 1-.463.597.512.512 0 0 1-.52-.411C21.572 13.072 18.086 12 16 12c-1.042 0-2.823.349-4.333.849a.5.5 0 0 1-.315-.949c1.353-.448 3.315-.9 4.648-.9 1.177 0 4.106.502 5.778 1.301-.834-3.422-3.395-6.744-5.778-7.29-2.615.601-5.515 4.713-6.004 8.552A.5.5 0 0 1 9.5 14zm17.682 16H13.873a.499.499 0 0 1-.475-.658l3.328-10A.5.5 0 0 1 17.2 19h13.309a.499.499 0 0 1 .475.658l-3.328 10a.5.5 0 0 1-.474.342zm-12.616-1h12.255l2.995-9H17.561l-2.995 9z"/><path d="M22.5 24a.47.47 0 0 1-.35-.15.47.47 0 0 1-.15-.35.501.501 0 0 1 1 0c0 .13-.05.26-.15.35a.47.47 0 0 1-.35.15z"/></g></svg>