<svg xmlns="http://www.w3.org/2000/svg" viewBox="0 0 100 100" xml:space="preserve"><path d="M82 77v5H18v-5c0-10.85 5.45-20.81 14.38-26.7l-1.05 12.6 7.68-7.67 3.66 3.67 3.67-3.67L50 58.9l3.66-3.67 3.67 3.67 3.66-3.67 7.68 7.67-1.05-12.6a32.54 32.54 0 0 1 5.01 4.07C78.67 60.41 82 68.45 82 77z" fill="#3C93C9" style="fill:#3c93c9"/><path d="m42.67 56.07 3.67-3.67L50 56.07l3.66-3.67 3.67 3.67 3.66-3.67 5.23 5.23-3.07-36.88A3.011 3.011 0 0 0 60.16 18H39.84c-1.55 0-2.86 1.2-2.99 2.75l-3.07 36.88 5.23-5.23 3.66 3.67zM55.5 31.49c2.48 0 4.5 2.02 4.5 4.5s-2.02 4.5-4.5 4.5-4.5-2.02-4.5-4.5 2.02-4.5 4.5-4.5zm-11 0c2.48 0 4.5 2.02 4.5 4.5s-2.02 4.5-4.5 4.5-4.5-2.02-4.5-4.5 2.02-4.5 4.5-4.5z" fill="#231F20" style="fill:#231f20"/></svg>